/* XPM */
static char *result[] = {
/* columns rows colors chars-per-pixel */
"64 64 55 1 ",
"  c #468732",
". c #468832",
"X c #4A8B36",
"o c #4D8C3A",
"O c #518E3E",
"+ c #4E933A",
"@ c #50963C",
"# c #53983F",
"$ c #538F41",
"% c #559343",
"& c #589446",
"* c #559942",
"= c #599B46",
"- c #5C964B",
"; c #5D9D4B",
": c #60974E",
"> c #619C4F",
", c #649C53",
"< c #689D57",
"1 c #6B9F5A",
"2 c #61A04F",
"3 c #65A253",
"4 c #68A257",
"5 c #6CA35C",
"6 c #6EA85E",
"7 c #70A95F",
"8 c #72A563",
"9 c #74AA64",
"0 c #78A76A",
"q c #77AC68",
"w c #79AC6A",
"e c #7BB06B",
"r c #7FAF72",
"t c #7FB270",
"y c #84AF76",
"u c #85AF78",
"i c #82B474",
"p c #87B37A",
"a c #89B47C",
"s c #86B879",
"d c #8BB97E",
"f c #8EB681",
"g c #8EBB82",
"h c #90B784",
"j c #92BC86",
"k c #95BB89",
"l c #99BD8E",
"z c #9BBF92",
"x c #96C08A",
"c c #99C28E",
"v c #9BC391",
"b c #A1C596",
"n c #A2C298",
"m c #A5C99A",
"M c None",
/* pixels */
"MMMMMMMMMMMMMMMMMMMMMMMMMMMMMMMMMMMMMMMMMMMMMMMMMMMMMMMMMMMMMMMM",
"MMMMMMMMMMMMMMMMMMMMMMMMMMMMMMMMMMMMMMMMMMMMMMMMMMMMMMMMMMMMMMMM",
"MMMMMMMMMMMMMMMMMMMMMMMMMMMMMMMMMMMMMMMMMMMMMMMMMMMMMMMMMMMMMMMM",
"MMMMMMMMMMMMMMMMMMMMMMMMMMMMMMMMMMMMMMMMMMMMMMMMMMMMMMMMMMMMMMMM",
"MMMMMMMMMMMMMMMMMMMMMMMMMMMMMMMMMMMMMMMMMMMMMMMMMMMMMMMMMMMMMMMM",
"MMMMMMMMMMMMMMMMMMMMMMMMMMMMMMMxjMMMMMMMMMMMMMMMMMMMMMMMMMMMMMMM",
"MMMMMMMMMMMMMMMMMMMMMMMMMMMMMMM4-MMMMMMMMMMMMMMMMMMMMMMMMMMMMMMM",
"MMMMMMMMMMMMMMMMMMMMMMMMMMMMMMM@.MMMMMMMMMMMMMMMMMMMMMMMMMMMMMMM",
"MMMMMMMMMMMMMMMMMMMMMMMMMMMMMMM@.MMMMMMMMMMMMMMMMMMMMMMMMMMMMMMM",
"MMMMMMMMMMMMMMMMMMMMMMMMMMMMMMg@.pMMMMMMMMMMMMMMMMMMMMMMMMMMMMMM",
"MMMMMMMMMMMMMMMMMMMMMMMMMMMMMM2@ -MMMMMMMMMMMMMMMMMMMMMMMMMMMMMM",
"MMMMMMMMMMMMMMMMMMMMMMMMMMMMMM@@  MMMMMMMMMMMMMMMMMMMMMMMMMMMMMM",
"MMMMMMMMMMMMMMMMMMMMMMMMMMMMMM@@  MMMMMMMMMMMMMMMMMMMMMMMMMMMMMM",
"MMMMMMMMMMMkMMMMMMMMMMMMMMMMMx@@  aMMMMMMMMMMMMMMMMMkMMMMMMMMMMM",
"MMMMMMMMMMMwsMMMMMMMMMMMMMMMM3@@  -MMMMMMMMMMMMMMMMsyMMMMMMMMMMM",
"MMMMMMMMMMMnwsMMMMMMMMMMMMMMM@@@   MMMMMMMMMMMMMMMdwnMMMMMMMMMMM",
"MMMMMMMMMMMMO;jMMMMMMMMMMMMMM@@@   MMMMMMMMMMMMMMg;%MMMMMMMMMMMM",
"MMMMMMMMMMMM&q@cMMMMMMMMMMMMv@@@   lMMMMMMMMMMMMx@9-MMMMMMMMMMMM",
"MMMMMMMMMMMMh.5@vMMMMMMMMMMMq@@@   8MMMMMMMMMMMm@5 kMMMMMMMMMMMM",
"MMMMMMMMMMMMM.<@@MMMMMMMMMMM*@@@   oMMMMMMMMMMM@@< MMMMMMMMMMMMM",
"MMMMMMMMMMMMM$ w@@MMMMMMMMMM@@@@    MMMMMMMMMM@@w.$MMMMMMMMMMMMM",
"MMMMMMMMMMMMMa O=@@MMMMMMMMM@@@@    MMMMMMMMM@@=%.fMMMMMMMMMMMMM",
"MMMMMMMMMMMMMM  w@@*MMMMMMMM@@@@    MMMMMMMM*@@w  MMMMMMMMMMMMMM",
"MMMMMMMMMMMMMMO .5@@;MMMMMMj@@@@    jMMMMMM=@@4. oMMMMMMMMMMMMMM",
"MMMMMMMMMMMMMMa .4@@@4MMMMMi@@@@    0MMMMM5@@@4  aMMMMMMMMMMMMMM",
"MMMMMMMMMMMMMMM ..q@@@tMMMM6@@@@    1MMMMi@@@q . MMMMMMMMMMMMMMM",
"MMMMMMMMMMMMMMM:  &*@@@MMMM;@@@@    &MMMM@++*&..:MMMMMMMMMMMMMMM",
"MMMMMMMMMMMMMMMM   w@@@@MMM@@@@@    XMMM@@@+w...MMMMMMMMMMMMMMMM",
"MMMMMMMMMMMMMMMM.  X4@@@>MM@@@@@     MM2@@@4o  XMMMMMMMMMMMMMMMM",
"MMMMMMMMMMMMMMMMw   5@@@@sM@@@@@     Ms@@@+8   wMMMMMMMMMMMMMMMM",
"MMMMMMMMMMMMMMMMM    q+@@@M@@@@@     M@@@@9    MMMMMMMMMMMMMMMMM",
"MasMMMMMMMMMMMMMM<   -*+@@2@@@@@    .2@@+*:   ,MMMMMMMMMMMMMMsfM",
"MM9w=3xMMMMMMMMMMM..  w@@@@@@@@@  . o@@@@w    MMMMMMMMMMMb5*q8MM",
"MMM0%w@@=dMMMMMMMM:.  O>@@@@@@@@  ..+@@@>o   :MMMMMMMMd=@@q&wMMM",
"MMMMp >8@@@=gMMMMMM.   8@@+@@@@@   o@@@@8 .. MMMMMMv;@@@8,.pMMMM",
"MMMMMz  54@@@@4MMMM5    7@@@@@@@  .@@@@6   .5MMMm3@@@@38..kMMMMM",
"MMMMMMM ..9=@@@@@fMMX.  >#@@@@@@  X@@@@,   .MMd#@@@@=wo .MMMMMMM",
"MMMMMMMMo .%w*@@@@@ta.  .q@@@@@@  @@@@q... fd@@@@@@9$X XMMMMMMMM",
"MMMMMMMMM-. .-8+@@@@@*.. O2@@@@@ X@@@>@ ..*@@@@@@q,   &MMMMMMMMM",
"MMMMMMMMMM8 ...55@@@@@+. .9@@@@@ +@@@q  X@@@@@@57    8MMMMMMMMMM",
"MMMMMMMMMMMk..  .8>@@@@@X..7@@@@.@@@7..+@@@@@>8.    jMMMMMMMMMMM",
"MMMMMMMMMMMMMo  ..ow*@@@@@.4@@@@X@@@<.@@@@@#0O..  oMMMMMMMMMMMMM",
"MMMMMMMMMMMMMM8     &9@@@@@X4@@@+@@4X@@@@@q-  .. 8MMMMMMMMMMMMMM",
"MMMMMMMMMMMMMMMM+.  ..<6@@@@#@@@@@@@@@@@7,..  .@MMMMMMMMMMMMMMMM",
"MMMMMMMMMMMMMMMMMfX..   8>@@@=@@@@*@@@>5..   .aMMMMMMMMMMMMMMMMM",
"MMMMMMMMMMMMMMMMcjt;+o+.XX8@@@@@@+@@@8o.XXX+>ijcMMMMMMMMMMMMMMMM",
"MMMMMMMMMxe;@@+@@@@@@@+@@@@@*@@@@@@*@@@@@@@@@@@@@@@@;elMMMMMMMMM",
"MMMMMi=@@@@@@@@@@@@@@@@@@@@@@@@++@@@@@@@@@@@@@@@@@@@@@@@@;iMMMMM",
"Mbwwwqwwwwwwqwwqwwqwwqwwwq5,&#@OO@#&,5wwwwwwqwwqwwwwwqwwqwwwwwbM",
"MMMMMrO               .. o+@@@,oX-@@@+o            .     O0MMMMM",
"MMMMMMMMMh8%         ..X@@@@4o1OO1o5#@@@o...        %8hMMMMMMMMM",
"MMMMMMMMMMMMMMMMkfyifw*@@#w* -MooM-.*q@++*wfyyfkMMMMMMMMMMMMMMMM",
"MMMMMMMMMMMMMMMMMMMMe@@@7,. <MM..MM1  ,9@@@wMMMMMMMMMMMMMMMMMMMM",
"MMMMMMMMMMMMMMMMMMM*@@<5  .uMMM .MMMu   54@@*MMMMMMMMMMMMMMMMMMM",
"MMMMMMMMMMMMMMMMMx++=wo  $MMMMM .MMMMM&  Xq=@@dMMMMMMMMMMMMMMMMM",
"MMMMMMMMMMMMMMMM8@*q%  XfMMMMMM .MMMMMMf.  @w*@8MMMMMMMMMMMMMMMM",
"MMMMMMMMMMMMMMM3@8>. XaMMMMMMMM .MMMMMMMMko  -q@2MMMMMMMMMMMMMMM",
"MMMMMMMMMMMMMM=45  -MMMMMMMMMMM .MMMMMMMMMMn- .46=MMMMMMMMMMMMMM",
"MMMMMMMMMMMMM,9.%hMMMMMMMMMMMMM .MMMMMMMMMMMMMj% q4MMMMMMMMMMMMM",
"MMMMMMMMMMMMw5zMMMMMMMMMMMMMMMM .MMMMMMMMMMMMMMMMMqwMMMMMMMMMMMM",
"MMMMMMMMMMMMMMMMMMMMMMMMMMMMMMM11MMMMMMMMMMMMMMMMMMMMMMMMMMMMMMM",
"MMMMMMMMMMMMMMMMMMMMMMMMMMMMMMMMMMMMMMMMMMMMMMMMMMMMMMMMMMMMMMMM",
"MMMMMMMMMMMMMMMMMMMMMMMMMMMMMMMMMMMMMMMMMMMMMMMMMMMMMMMMMMMMMMMM",
"MMMMMMMMMMMMMMMMMMMMMMMMMMMMMMMMMMMMMMMMMMMMMMMMMMMMMMMMMMMMMMMM"
};
