/* XPM */
static char *natural_marble_pattern_background_1258_22160_avif1697111354[] = {
/* columns rows colors chars-per-pixel */
"62 62 122 2 ",
"   c #000000",
".  c #090003",
"X  c #020509",
"o  c #00080A",
"O  c #00153D",
"+  c #001546",
"@  c #011E46",
"#  c #011D4B",
"$  c #001E54",
"%  c #081E50",
"&  c #03224C",
"*  c #032554",
"=  c #0A2554",
"-  c #032955",
";  c #0A2B56",
":  c #02275B",
">  c #0A255A",
",  c #022B5C",
"<  c #0A2B5A",
"1  c #04325E",
"2  c #002762",
"3  c #022D63",
"4  c #0B2B62",
"5  c #022F6A",
"6  c #082E6C",
"7  c #023365",
"8  c #093365",
"9  c #003966",
"0  c #0E3966",
"q  c #03346C",
"w  c #0A346C",
"e  c #033A6D",
"r  c #0A396D",
"t  c #103562",
"y  c #10396F",
"u  c #033672",
"i  c #0A3671",
"p  c #033B74",
"a  c #093B73",
"s  c #063779",
"d  c #033D7B",
"f  c #0A3E7B",
"g  c #103979",
"h  c #034175",
"j  c #084072",
"k  c #03427C",
"l  c #0A437C",
"z  c #014F7F",
"x  c #12447C",
"c  c #003E82",
"v  c #034483",
"b  c #0A4482",
"n  c #034A85",
"m  c #0A4B84",
"M  c #02458A",
"N  c #034C8B",
"B  c #094B8B",
"V  c #114F8A",
"C  c #03518D",
"Z  c #0B528C",
"A  c #024D92",
"S  c #094D91",
"D  c #054C9C",
"F  c #035394",
"G  c #0A5295",
"H  c #045A96",
"J  c #095996",
"K  c #03559A",
"L  c #09569C",
"P  c #025A9D",
"I  c #095B9D",
"U  c #135B96",
"Y  c #00609F",
"T  c #0256A2",
"R  c #025DA3",
"E  c #0A5CA3",
"W  c #015EAA",
"Q  c #0C5DA9",
"!  c #0362A5",
"~  c #0A63A4",
"^  c #0364AB",
"/  c #0964AB",
"(  c #036BAD",
")  c #0A69AE",
"_  c #0366B2",
"`  c #0A67B2",
"'  c #036CB4",
"]  c #0A6DB5",
"[  c #046EB9",
"{  c #096DBA",
"}  c #0171B5",
"|  c #0A73B7",
" . c #0374BB",
".. c #0974BD",
"X. c #017ABD",
"o. c #097ABF",
"O. c #0577C1",
"+. c #027DC3",
"@. c #0A7BC2",
"#. c #0283C5",
"$. c #0882C3",
"%. c #0384CA",
"&. c #0985CC",
"*. c #028BCD",
"=. c #0A89CD",
"-. c #0191CE",
";. c #0A91CF",
":. c #048ED0",
">. c #098ED2",
",. c #0494D3",
"<. c #0A91D4",
"1. c #019AD6",
"2. c #0898D7",
"3. c #0797D8",
"4. c #0A95D8",
"5. c #039CD9",
"6. c #099BDB",
"7. c #03A0D7",
"8. c #03A1DB",
"9. c #0CA0DE",
"0. c #07A3E0",
"q. c #06ABE3",
/* pixels */
"                                                                                                                            ",
"                                                                                                                            ",
"                                                                                                                            ",
"                                                                                                                            ",
"                                                                                                                            ",
"                                                                                                                            ",
"                                                                                                                            ",
"                                                                                                                            ",
"                        .             .   . X         X             X                                 X .     X     X       ",
"      X     X X   X         X X   X   X                 .     X .     .       . X X     X     X       .   X   . .           ",
"          .       .           .                 .   X   X   .                 .   .     .     .   X               . X       ",
"      X               X               X     X                   X         X X X                                   X     . X ",
"              . .         . .   X   .     X                       .     .         .         .                 X             ",
"        X                   X       .         .           .       X               X           X       .   X     X       X   ",
". .     X             .       o     . X X       X     . .   X                 .     . . . .     o     o         .           ",
"3 7 p h k l v h e 7 3 3 7 7 d V B c d B G C n v L A M v v M A I ' ( ) ! F N M N n h p e q 5 p m V d d g 7 , - & + # < 8 8 , ",
", 8 7 q k p h k p q 4 : 3 q n P F n d A K H B d F B A R ! Q W } [ _ _ W F k a u s 5 3 3 9 3 i B m e i w 7 , - ; 7 # < , 3 p ",
"> q 7 p a p q p l p e q 5 v H Y S F F P T L A N N M L ` ' / ! ] [ ' [ ! K n d d k s 2 , 2 2 s n p 3 3 3 - * # # < & & < 8 7 ",
"7 e l v k h e h f e h h f G R ^ F F ! ! ! ^ R P K A A T _ ^ ^ ` ] [ o.' R A n N H G b p w a k k p q 7 < ; * & & & @ O & 0 : ",
"7 p v v k h p p p p p k Z S A ^ K F E ! [  ._ R R R T K ( } [ _ R [ +.} ! A A H ( ] L n k v k k h p w , = * * * & ; & * , * ",
"e k B d d v l k e w q p C F F E F A K R [ [ ] ^ ( ( T D /  .#.[ R ' +. .( P K E ^ _ P F n n v d n d 7 : * * * * * , 8 3 : , ",
"k n N d k m N N a 7 5 5 k I Y L S F P ( } _  .[ } } ! T W } #.%.[  .O. .| / W K W ^ R P F N n b n v q 2 , , 3 3 , 7 r r , < ",
"u l p 3 7 w d n r q p u k H ~ I L I ! }  .O.O.X.'  .' ] .. .%.*.+. . .[ ' ! K M F W P K K A N v n k 3 < - , 8 , 8 q r r * < ",
"7 a 7 3 7 7 p N 7 a l v n F K P ! R ! [ +.>.%. .' @.} }  .+.=.:.#.} ' ^ ( Y L N F H I N A N H N k p 2 < - - r 7 - , , * @ & ",
"q q 9 7 , 2 B N s k C I F Y ! ! I T Q  .+.+.+.O...+.%.=.X.&.*.,.1.*.+.X.$.o.` R N A B M d c n n v w 1 < , q : < * 7 $ w - , ",
"w 7 7 , 7 d n n p v N F A E ! R P P _ @.+.+.+.O.+.#.%.:.#.#.%.3.1.,.*.X.+.X.o.} K N M b d d n n n k 9 w q q : * & 8 , m & # ",
": 2 w q k n A A k N A E W / ~ ! R W _ @.%.#.+.+.,.2.<.<.,.,.,.>.1.-.;.;.<.*.#. .! F v d q u d B F N e k k w 3 = & 1 7 d > # ",
"7 7 q a b N F L n N F ! ] ^ R ^ ! _  .+.%.<.<.*.,.8.1.-.5.,.5.,.5.-.*.,.,.*.#.X...^ N f u u p b B b d v v p e 1 , r 8 7 0 7 ",
"k s 5 s n n N N c V D W [ ^ R E W ] o. .+.:.:.:.:.5.7.5.6.,.5.q.7.-.*.%.*.%.=.O...! A k s u 5 p u s d d d a 1 - * 7 2 f - 7 ",
"l k d C F n n n M G E ! [ _ R P W ) }  .O.+.+.+.%.,.7.7.5.,.7.8.1.,.%.#.*.<.=.} [ ! P L V k d v e a l u a a < , = : h U > % ",
"w p v H F S S N K R ^ ! ( ( R K R ! [  .+.&.+.*.*.,.0.5.5.9.8.1.,.<.#.+.*.<.*.} ^ ^ R T I N v v q e p q 7 7 w 5 ; 3 m G < + ",
"q e k M M S K F ! ! E F R P E K K )  . .O.@.%.%.*.*.5.5.1.1.,.,.:.:.%.*.2.*.#.+.! _ ] ! / H N v 3 e i p p r l k 7 h l k 7 q ",
", r p q u l C N f n H P ! ! T ! ( [  . . . .+.*.%.%.>.:.*.*.:.*.5.5.,.:.*.*.%.#.{ ` ^ ( ( ! F b a u d a q p h r p k k f 6 7 ",
"7 e p p q u v n 5 k C H R ) ^ ^ o. .[ ' } O.+.+.%.+.%.*.:.%.*.:.3.,.3.3.1.-.#. .X.} ) R R ~ H N B n v p h k k r l m N m 9 , ",
"7 p p j q 7 s B q k F P P ! R ! { .. . .+.+.%.:.%.+.+.:.:.*.:.,.:.%.:.,.,.*.&. .X.} / F F I Z k k d p w r i u g i p k m q = ",
"q q q a r p k B F F I ! ! P F I ! [ @.$.+.#.*.,.,.+.O.:.>.>.:.,.,.%.*.:.%.#.+.+. .! E A M N f 5 5 u w $ * , 2 5 6 i j z 7 & ",
"u q u p p p v N K K P ! R P R ~ [  .X.X.X.+.$.#.,.%.*.:.,.,.,.5.6.:.,.<.%.X.X. .' T E S c c s w a 3 * * - * , e e q p p 7 , ",
"e p p d h h k f v F F P P ! ^ _  .+.X.X.+.#.#.#.:.:.,.,.,.:.,.5.:.*.,.,.%.X. ._ _ R R R P F v a a 7 < * # - 0 a k l f a r 8 ",
"7 r d k k h d u b Z F F W ^ _ ' [ ..@.X.+.%.*.-.,.,.3.5.5.,.3.3.*.:.,.:.#.} _ W Q R P ! ( ! n d b 2 * : * @ * w p l p : : & ",
"* 3 u k n n h q c n n C I P P ! }  .X. . .$.*.-.,.,.3.5.5.3.3.,.:.,.:.#. .] _ _ K K L K K K n n N q , 7 8 < : q f B z 1 ; = ",
"p a p p k n n d k N N N H E ! R [ [  . .X.X.#.;.-.,.,.,.,.2.2.-.=.-.2.#.O.W ( _ ! W R A A N B v z q w w 7 w 2 w l p p j e 7 ",
"e e e h h k k m k v v v M P P R _ [ [ [  .O.$.*.*.-.,.,.,.,.-.-.#.#.*.X. .^ ] _ W W T A A A M N k u u q p h 7 p a a 7 7 7 r ",
"p u u a p q p s a p d b n N F F ! ( ( ^ }  .X.X.#.-.,.,.2.,.*.-.*.*.*.+.{ W ( ^ W E K F N n n m l s u w w r 7 r 8 q 7 * - 1 ",
"u q u q e p p q d d v Z F A F P ! ^ ^ ( [  .X.X.o.*.,.,.,.-.*.<.,.,.>.O.[ ^ ' } ^ ! R P K F n n b k h e q e 7 q 9 7 0 * & * ",
", 8 a w q p l l v k n F F F P ~ R P R ( ) X.} o.X.$.#.;.;.*.#.;.*.*.%.} ! ! _ } _ ( ! P I J B M C N N k k v k l p p m r w p ",
"3 7 w w 7 p k B F A N F K P R ^ ( ! ! ( | } } X. .@.#.#.%.%.#.=.%.+.+.} ' ' [ _ ^ ( ! P R I F N v m B v d h l z m b f 5 q p ",
"            X o           X     .             X                         .         X o       . .       X         . . . . .   ",
"X X       .                                             . X     .               .               .                 o         ",
"                                                                                                                            ",
"                                                                                                                            ",
"                                                                                                                            ",
"                                                                                                                            ",
"                                                                                                                            ",
"                                                                                                                            ",
"                                                                                                                            ",
"                                                                                                                            ",
"                                                                                                                            ",
"                                                                                                                            ",
"                                                                                                                            ",
"                                                                                                                            ",
"                                                                                                                            ",
"                                                                                                                            "
};
