/* XPM */
static char *result[] = {
/* columns rows colors chars-per-pixel */
"64 64 109 2 ",
"   c #000000",
".  c #0A0500",
"X  c #060B02",
"o  c #0C0B01",
"O  c #130A00",
"+  c #1A0E00",
"@  c #0B1403",
"#  c #0E1A03",
"$  c #1F1000",
"%  c #101C04",
"&  c #231200",
"*  c #2D1700",
"=  c #2C1A00",
"-  c #331C00",
";  c #3B1E00",
":  c #152405",
">  c #172805",
",  c #192C06",
"<  c #1E3507",
"1  c #3D2300",
"2  c #213A08",
"3  c #422400",
"4  c #4C2600",
"5  c #442900",
"6  c #4C2C00",
"7  c #552B00",
"8  c #5B2E00",
"9  c #553300",
"0  c #5D3700",
"q  c #5E3800",
"w  c #653300",
"e  c #6B3600",
"r  c #663C00",
"t  c #6B3B00",
"y  c #723A00",
"u  c #7B3E00",
"i  c #254109",
"p  c #284609",
"a  c #2B4C0A",
"s  c #2E510B",
"d  c #32570C",
"f  c #345C0C",
"g  c #37600D",
"h  c #3A650E",
"j  c #3D6B0E",
"k  c #6E4200",
"l  c #764600",
"z  c #7F4000",
"x  c #794800",
"c  c #41720F",
"v  c #437510",
"b  c #467B11",
"n  c #487F11",
"m  c #824200",
"M  c #8B4700",
"N  c #854F01",
"B  c #934B00",
"V  c #994E00",
"C  c #865001",
"Z  c #895201",
"A  c #9F5000",
"S  c #975A01",
"D  c #9B5C01",
"F  c #A35300",
"G  c #A95600",
"H  c #AE5800",
"J  c #B45B00",
"K  c #BA5E00",
"L  c #A56201",
"P  c #AB6601",
"I  c #AF6801",
"U  c #B56701",
"Y  c #B56C01",
"T  c #B96E01",
"R  c #BD7101",
"E  c #C36300",
"W  c #CA6600",
"Q  c #CF6900",
"!  c #D36B00",
"~  c #DA6E00",
"^  c #C57501",
"/  c #C97701",
"(  c #CC7901",
")  c #DD7100",
"_  c #E37300",
"`  c #E97600",
"'  c #ED7900",
"]  c #F57C00",
"[  c #4B8512",
"{  c #4E8B13",
"}  c #508E13",
"|  c #549414",
" . c #579A15",
".. c #599E15",
"X. c #5DA416",
"o. c #60A917",
"O. c #D78001",
"+. c #DA8201",
"@. c #E28401",
"#. c #E58801",
"$. c #EC8D01",
"%. c #F68200",
"&. c #F88400",
"*. c #F08F01",
"=. c #FB8C00",
"-. c #F79301",
";. c #FD9501",
":. c #FF9801",
">. c None",
/* pixels */
">.>.>.>.>.>.>.>.>.>.>.>.>.>.>.>.>.>.>.>.>.>.>.>.>.>.>.>.>.>.>.>.>.>.>.>.>.>.            >.>.>.>.>.>.              >.>.>.>.>.>.>.",
">.>.>.>.>.>.>.>.>.>.>.>.>.>.>.>.>.>.>.>.>.>.>.>.>.>.>.>.>.>.>.>.>.>.>.>.                    >.>.                      >.>.>.>.>.",
">.>.>.>.>.>.>.>.>.>.>.>.>.>.>.>.>.>.>.>.>.>.>.>.>.>.>.>.>.>.>.>.>.>.      X i h v b h i X         @ s v { | n f >         >.>.>.",
">.>.>.>.>.>.>.>.>.>.>.>.>.>.>.>.>.>.>.>.>.>.>.>.>.>.>.>.>.>.>.>.>.      p } | | | | | | n       g X.o.o.o.o.X.o.X.{ i       >.>.",
">.>.>.>.>.>.>.>.>.>.>.>.>.>.>.>.>.>.>.>.>.>.>.>.>.>.>.>.>.>.>.>.    X j | | | | | | | { @   @ } X.o.o.o.o.o.o.o.o.o. .b @     >.",
">.>.>.>.>.>.>.>.>.>.>.>.>.>.>.>.>.>.>.>.>.>.>.>.>.>.>.>.>.>.>.      v | | | | | | | | >   @ | o.o.o.o.o.o.o.o.o.o.o.X.| n     >.",
">.>.>.>.>.>.>.>.>.>.>.>.>.>.>.>.>.>.>.>.>.>.>.>.>.>.>.>.>.>.>.    j | | | | | | | | f     [ o.o.o.o.o.o.o.o.o.o.o.o.o...| 2     ",
">.>.>.>.>.>.>.>.>.>.>.>.>.>.>.>.>.>.>.>.>.>.>.>.>.>.>.>.>.>.    i | | | | | | | | [ X   f o.o.o.o.o.o.o.o.o.o.o.o.o.X.X.| h     ",
">.>.>.>.>.>.>.>.>.>.>.>.>.>.>.>.>.>.>.>.>.>.>.>.>.>.>.>.>.    % | | | | | | | | | p   @ X.o.o.o.o.o.o.o.o.o.o.o.o.o.o.X.| j     ",
">.>.>.>.>.>.>.>.>.>.>.>.>.>.>.>.>.>.>.>.>.>.>.>.>.>.>.>.>.    c | | | | | | | | { X   h o.o.o.o.o.o.o.o.o.o.o.o.o.o.o...| f     ",
">.>.>.>.>.>.>.>.>.>.>.>.>.>.>.>.>.>.>.>.>.>.>.>.>.>.>.>.    < | | | | | | | | | f   @ X.o.o.o.o.o.o.o.o.o.o.o.o.o.o.o...| <     ",
">.>.>.>.>.>.>.>.>.>.>.>.>.>.>.>.>.>.>.>.>.        >.>.>.    n | | | | | | | | | :   f X.o.o.o.o.o.o.o.o.o.o.o.o.o.o.X.| n     >.",
">.>.>.>.>.>.>.>.>.>.>.>.>.>.>.>.>.>.>.                    2 | | | | | | | | | n      .o.o.o.o.o.o.o.o.o.o.o.o.X.o.X. .} #     >.",
">.>.>.>.>.>.>.>.>.>.>.>.>.>.>.>.>.      o 4 e u 8 &       2 | | | | | | | | | a   > o.o.o.o.o.o.o.o.o.o.b @ s X.o...v @     >.>.",
">.>.>.>.>.>.>.>.>.>.>.>.>.>.>.>.    $ B ' ] ] ] ] ] J 3     : [ | | | | | | | >   g X.o.o.o.o.o.o.o.o.o.g       % @       >.>.>.",
">.>.>.>.>.>.>.>.>.>.>.>.>.>.      w ` ] ] ] ] ] ] ] ] ] B .   @ [ | | | | | {     { o.o.o.o.o.o.o.o.o.o.X.j #           >.>.>.>.",
">.>.>.>.>.>.>.>.>.>.>.>.>.    . B ] ] ] ] ] ] ] ] ] ] ] ] W +   % f i < < i i   X o.o.o.o.o.o.o.o.o.o.o.o.o.X.b f     >.>.>.>.>.",
">.>.>.>.>.>.>.>.>.>.>.>.    . J ] ] ] ] ] ] ] ] ] ] ] ] ] ] G                   X h X.o.o.o.o.o.o.o.o.o.o.o.X.{ <     >.>.>.>.>.",
">.>.>.>.>.>.>.>.>.>.>.>.    G ] ] ] ] ] ] ] ] ] ] ] ] ] ' u .     * r C N t - .     @ g o.o.o.o.o.X.| n j a , X     >.>.>.>.>.>.",
">.>.>.>.>.>.>.>.>.>.>.    u ] ] ] ] ] ] ] ] ] ] ] ] ] ` ;     5 ( :.:.:.:.;.:.@.m $     , | n i #                 >.>.>.>.>.>.>.",
">.>.>.>.>.>.>.>.>.>.      O J ] ] ] ] ] ] ] ] ] ] ] _ *   o D :.:.:.:.:.:.:.:.:.:.%.z .                       >.>.>.>.>.>.>.>.>.",
">.>.>.>.>.>.>.>.>.    * *   . B ] ] ] ] ] ] ] ] ] ' -   O / :.:.:.:.:.:.:.:.:.:.:.:.=.Q &       >.>.>.>.>.>.>.>.>.>.>.>.>.>.>.>.",
">.>.>.>.>.>.>.>.    . Q ` 4     e ] ] ] ] ] ] ] ] 8   o ( :.:.:.:.:.:.:.:.:.:.:.:.:.-.&._ ;     >.>.>.>.>.>.>.>.>.>.>.>.>.>.>.>.",
">.>.>.>.>.>.>.>.    M ] ] ] y     7 ] ] ] ] ] ] F     P :.:.:.:.:.:.:.:.:.:.:.:.:.:.:.:.%._ &     >.>.>.>.>.>.>.>.>.>.>.>.>.>.>.",
">.>.>.>.>.>.>.    - ] ] ] ] ] V . 3 ] ] ] ] ] _ O   k :.:.:.:.:.:.:.:.:.:.:.:.:.:.:.:.:.;.] J     >.>.>.>.>.>.>.>.>.>.>.>.>.>.>.",
">.>.>.>.>.>.>.    W ] ] ] ] ] ] _ ' ] ] ] ] ] 7   & -.:.:.:.:.:.:.:.:.:.:.:.:.:.:.:.:.:.;.%.] ;     >.>.>.>.>.>.>.>.>.>.>.>.>.>.",
">.>.>.>.>.>.      M ] ] ] ] ] ] ] ] ] ] ] ] E     Y :.:.:.:.:.:.:.:.:.:.:.:.:.:.:.:.:.:.:.&.] B     >.>.>.>.>.>.>.>.>.>.>.>.>.>.",
">.>.>.>.>.>.        w ] ] ] ] ] ] ] ] ] ] ] 1   5 :.:.:.:.:.:.:.:.:.:.:.:.:.:.:.:.:.:.:.:.;.] Q     >.>.>.>.>.>.>.>.>.>.>.>.>.>.",
">.>.>.>.>.    y y .   u ] ] ] ] ] ] ] ] ] K       9 O.:.:.:.:.:.:.:.:.:.:.:.:.:.:.:.:.:.;.;.] `     >.>.>.>.>.>.>.>.>.>.>.>.>.>.",
">.>.>.>.>.  . ) ] V & J ] ] ] ] ] ] ] ] ] 4   $       r #.:.:.:.:.:.:.:.:.:.:.:.:.:.:.:.:.;.] ]     >.>.>.>.>.>.>.>.>.>.>.>.>.>.",
">.>.>.>.    w ] ] ] ] ] ] ] ] ] ] ] ] ] Q     ( / 5     . l $.:.:.:.:.:.:.:.:.:.:.9 = L ;.;.] `     >.>.>.>.>.>.>.>.>.>.>.>.>.>.",
">.>.>.>.  . ~ ] ] ] ] ] ] ] ] ] ] ] ] ] y   1 :.:.:.Y 1     r :.:.:.:.:.:.:.:.:.;.=     - U ] W     >.>.>.>.>.>.>.>.>.>.>.>.>.>.",
">.>.>.    7 ] ] ] ] ] ] ] ] ] ] ] ] ] ] $   I :.:.:.:.:.L 5 Y :.-.R ;.:.:.:.:.:.:.$.l .     1 e     >.>.>.>.>.>.>.>.>.>.>.>.>.>.",
">.>.>.    K ] ] ] ] ] ] ] ] ] ] ] ] ] J   + -.:.:.:.:.:.:.:.:.:.x   & +.:.:.:.:.:.:.:.#.k .       >.>.>.>.>.>.>.>.>.>.>.>.>.>.>.",
">.>.    & ] ] ] ] ] ] ] ] ] ] ] ] ] ] 7   k :.:.:.:.:.:.:.:.:.:.Y o   P :.:.:.:.:.:.:.:.;.Q 7     >.>.>.>.>.>.>.>.>.>.>.>.>.>.>.",
">.>.    m ] ] ] ] ] ] ] ] ] ] ] ] ] ` .   I :.:.:.:.:.:.:.:.:.:.:.*.R :.:.:.:.:.:.:.:.:.=.] F     >.>.>.>.>.>.>.>.>.>.>.>.>.>.>.",
">.>.    ~ ] ] ] ] ] ] ] ] ] ] ] ] ] G     . r #.:.:.:.:.:.:.:.:.:.:.:.:.:.:.:.:.:.:.:.:.%.] ;     >.>.>.>.>.>.>.>.>.>.>.>.>.>.>.",
">.      0 ] ] ] ] ] ] ] ] ] ] ] ] ] w   O     . D :.:.:.:.:.:.:.:.:.:.:.:.:.:.:.-.9 r @.] E     >.>.>.>.>.>.>.>.>.>.>.>.>.>.>.>.",
">.        ; _ ] ] ] ] ] z G ] ] ] ] &   R Y =   6 :.:.:.:.:.:.:.:.:.:.:.:.:.:.:.#.    . e 7     >.>.>.>.>.>.>.>.>.>.>.>.>.>.>.>.",
">.    u .   & ! ] ] ] E     u ] ] !   . -.:.:.R #.:.:.:.:.:.:.:.:.:.:.:.:.:.:.:.:.R -         >.>.>.>.>.>.>.>.>.>.>.>.>.>.>.>.>.",
">.  O ] E +   + ] ] ] ] w     7 ' M   3 :.:.:.:.:.:.:.:.:.:.:.:.:.:.:.:.:.:.:.:.:.;.%.F .     >.>.>.>.>.>.>.>.>.>.>.>.>.>.>.>.>.",
"    4 ] ] ~ 3 w ] ] ] ] ] M     - 1   C :.:.:.:.:.:.:.:.:.:.:.:.:.:.:.:.:.:.:.:.:.;.] F     >.>.>.>.>.>.>.>.>.>.>.>.>.>.>.>.>.>.",
"    m ] ] ] ] ] ] ] ] ] ] ] H o       / :.:.:.:.:.:.:.:.:.:.:.:.:.:.:.:.:.:.:.;.;.%.~ O     >.>.>.>.>.>.>.>.>.>.>.>.>.>.>.>.>.>.",
"    V ] ] ] ] ] ] ] ] ] ] ] ] W $   . -.:.:.:.:.:.:.:.:.:.:.:.:.:.:.:.:.:.:.:.;.=.] 4     >.>.>.>.>.>.>.>.>.>.>.>.>.>.>.>.>.>.>.",
"    K ] ] ] ] ] ] ] ] ] ] ] ] E *   - :.:.:.:.:.:.:.:.:.:.:.:.:.:.:.:.:.:.:.:.;.] F     >.>.>.>.>.>.>.>.>.>.>.>.>.>.>.>.>.>.>.>.",
"    W ] ] ] ] ] ] ] ] ] ] _ w       0 :.:.:.:.:.:.:.:.S P :.:.:.:.:.:.:.:.:.;.%.~ O     >.>.>.>.>.>.>.>.>.>.>.>.>.>.>.>.>.>.>.>.",
"    K ] ] ] ] ] ] ] ] ' m O         Z :.:.:.:.:.:.:.+.    q :.:.:.:.:.:.:.:.=.' -     >.>.>.>.>.>.>.>.>.>.>.>.>.>.>.>.>.>.>.>.>.",
"    B ] ] ] ] ] ] _ z O       >.    Y :.:.:.:.:.:.:.:.x . r :.:.;.:.:.:.:.=.] 8     >.>.>.>.>.>.>.>.>.>.>.>.>.>.>.>.>.>.>.>.>.>.",
">.  & ~ ] ] ~ F 4 .       >.>.>.    R :.:.:.:.:.:.:.:.:.-.;.:.R . 9 O.;.;.] M     >.>.>.>.>.>.>.>.>.>.>.>.>.>.>.>.>.>.>.>.>.>.>.",
">.      + o           >.>.>.>.>.      9 O.:.:.:.:.:.:.:.:.:.:.P     . r ~ J       >.>.>.>.>.>.>.>.>.>.>.>.>.>.>.>.>.>.>.>.>.>.>.",
">.>.              >.>.>.>.>.>.>.        . r #.:.:.:.:.:.:.:.:.:./ 3     . o     >.>.>.>.>.>.>.>.>.>.>.>.>.>.>.>.>.>.>.>.>.>.>.>.",
">.>.>.>.>.>.>.>.>.>.>.>.>.>.>.>.  = / 1     . R :.:.:.:.:.:.:.:.:.:.J *       >.>.>.>.>.>.>.>.>.>.>.>.>.>.>.>.>.>.>.>.>.>.>.>.>.",
">.>.>.>.>.>.>.>.>.>.>.>.>.>.>.>.  1 :.:.Y =   D :.:.:.:.:.:.:.:.;.&.! &     >.>.>.>.>.>.>.>.>.>.>.>.>.>.>.>.>.>.>.>.>.>.>.>.>.>.",
">.>.>.>.>.>.>.>.>.>.>.>.>.>.>.>.  5 :.:.:.:.O.:.:.:.:.:.:.:.:.;.&.! &     >.>.>.>.>.>.>.>.>.>.>.>.>.>.>.>.>.>.>.>.>.>.>.>.>.>.>.",
">.>.>.>.>.>.>.>.>.>.>.>.>.>.>.>.  6 :.:.:.:.:.:.:.:.:.:.:.:.:.&.! +     >.>.>.>.>.>.>.>.>.>.>.>.>.>.>.>.>.>.>.>.>.>.>.>.>.>.>.>.",
">.>.>.>.>.>.>.>.>.>.>.>.>.>.>.>.  5 :.:.:.:.:.:.:.:.:.:.:.;.&.W +     >.>.>.>.>.>.>.>.>.>.>.>.>.>.>.>.>.>.>.>.>.>.>.>.>.>.>.>.>.",
">.>.>.>.>.>.>.>.>.>.>.>.>.>.>.>.  = :.:.:.:.:.:.:.:.:.;.;.%.F .     >.>.>.>.>.>.>.>.>.>.>.>.>.>.>.>.>.>.>.>.>.>.>.>.>.>.>.>.>.>.",
">.>.>.>.>.>.>.>.>.>.>.>.>.>.>.>.  O :.:.:.:.:.:.:.:.:.;.%.u       >.>.>.>.>.>.>.>.>.>.>.>.>.>.>.>.>.>.>.>.>.>.>.>.>.>.>.>.>.>.>.",
">.>.>.>.>.>.>.>.>.>.>.>.>.>.>.>.    $.:.:.:.:.:.:.:.=.) 4       >.>.>.>.>.>.>.>.>.>.>.>.>.>.>.>.>.>.>.>.>.>.>.>.>.>.>.>.>.>.>.>.",
">.>.>.>.>.>.>.>.>.>.>.>.>.>.>.>.    L :.:.:.:.:.:.&.V o     >.>.>.>.>.>.>.>.>.>.>.>.>.>.>.>.>.>.>.>.>.>.>.>.>.>.>.>.>.>.>.>.>.>.",
">.>.>.>.>.>.>.>.>.>.>.>.>.>.>.>.>.  - ;.:.;.;.;.E 3       >.>.>.>.>.>.>.>.>.>.>.>.>.>.>.>.>.>.>.>.>.>.>.>.>.>.>.>.>.>.>.>.>.>.>.",
">.>.>.>.>.>.>.>.>.>.>.>.>.>.>.>.>.    9 R ( B ;         >.>.>.>.>.>.>.>.>.>.>.>.>.>.>.>.>.>.>.>.>.>.>.>.>.>.>.>.>.>.>.>.>.>.>.>.",
">.>.>.>.>.>.>.>.>.>.>.>.>.>.>.>.>.>.                >.>.>.>.>.>.>.>.>.>.>.>.>.>.>.>.>.>.>.>.>.>.>.>.>.>.>.>.>.>.>.>.>.>.>.>.>.>.",
">.>.>.>.>.>.>.>.>.>.>.>.>.>.>.>.>.>.>.          >.>.>.>.>.>.>.>.>.>.>.>.>.>.>.>.>.>.>.>.>.>.>.>.>.>.>.>.>.>.>.>.>.>.>.>.>.>.>.>."
};
