/* XPM */
static char *result[] = {
/* columns rows colors chars-per-pixel */
"64 64 124 2 ",
"   c #010000",
".  c #0A0500",
"X  c #060B02",
"o  c #0C0B01",
"O  c #0A0A0A",
"+  c #130A00",
"@  c #1A0E00",
"#  c #0B1403",
"$  c #0E1A03",
"%  c #1F1000",
"&  c #101C04",
"*  c #151515",
"=  c #1B1B1B",
"-  c #231200",
";  c #2D1700",
":  c #2C1A00",
">  c #331C00",
",  c #3B1E00",
"<  c #152405",
"1  c #172805",
"2  c #192C06",
"3  c #1E3507",
"4  c #3D2300",
"5  c #213A08",
"6  c #212121",
"7  c #2B2B2B",
"8  c #343434",
"9  c #3A3A3A",
"0  c #422400",
"q  c #4C2600",
"w  c #442900",
"e  c #4C2C00",
"r  c #552B00",
"t  c #5B2E00",
"y  c #553300",
"u  c #5D3700",
"i  c #5E3800",
"p  c #653300",
"a  c #6B3600",
"s  c #663C00",
"d  c #6B3B00",
"f  c #723A00",
"g  c #7B3E00",
"h  c #254109",
"j  c #284609",
"k  c #2B4C0A",
"l  c #2E510B",
"z  c #32570C",
"x  c #345C0C",
"c  c #37600D",
"v  c #3A650E",
"b  c #3D6B0E",
"n  c #6E4200",
"m  c #764600",
"M  c #7F4000",
"N  c #794800",
"B  c #41720F",
"V  c #437510",
"C  c #467B11",
"Z  c #487F11",
"A  c #444444",
"S  c #4B4B4B",
"D  c #555555",
"F  c #5A5A5A",
"G  c #646464",
"H  c #6E6E6E",
"J  c #727272",
"K  c #7C7C7C",
"L  c #824200",
"P  c #8B4700",
"I  c #854F01",
"U  c #934B00",
"Y  c #994E00",
"T  c #865001",
"R  c #895201",
"E  c #9F5000",
"W  c #975A01",
"Q  c #9B5C01",
"!  c #A35300",
"~  c #A95600",
"^  c #AE5800",
"/  c #B45B00",
"(  c #BA5E00",
")  c #A56201",
"_  c #AB6601",
"`  c #AF6801",
"'  c #B56701",
"]  c #B56C01",
"[  c #B96E01",
"{  c #BD7101",
"}  c #C36300",
"|  c #CA6600",
" . c #CF6900",
".. c #D36B00",
"X. c #DA6E00",
"o. c #C57501",
"O. c #C97701",
"+. c #CC7901",
"@. c #DD7100",
"#. c #E37300",
"$. c #E97600",
"%. c #ED7900",
"&. c #F57C00",
"*. c #4B8512",
"=. c #4E8B13",
"-. c #508E13",
";. c #549414",
":. c #579A15",
">. c #599E15",
",. c #5DA416",
"<. c #60A917",
"1. c #D78001",
"2. c #DA8201",
"3. c #E28401",
"4. c #E58801",
"5. c #EC8D01",
"6. c #F68200",
"7. c #F88400",
"8. c #F08F01",
"9. c #FB8C00",
"0. c #F79301",
"q. c #FD9501",
"w. c #FF9801",
"e. c None",
/* pixels */
"e.e.e.e.e.e.e.e.e.e.e.e.e.e.e.e.e.e.e.e.e.e.e.e.e.e.e.e.e.e.e.e.e.e.e.e.e.e.F 7 O O 6 D e.e.e.e.e.e.S 6     * A K e.e.e.e.e.e.e.",
"e.e.e.e.e.e.e.e.e.e.e.e.e.e.e.e.e.e.e.e.e.e.e.e.e.e.e.e.e.e.e.e.e.e.e.e.=                 * e.e.*                   9 e.e.e.e.e.",
"e.e.e.e.e.e.e.e.e.e.e.e.e.e.e.e.e.e.e.e.e.e.e.e.e.e.e.e.e.e.e.e.e.e.F     X h v C C v h X         # k C =.-.C x 1       A e.e.e.",
"e.e.e.e.e.e.e.e.e.e.e.e.e.e.e.e.e.e.e.e.e.e.e.e.e.e.e.e.e.e.e.e.e.8     j =.;.;.;.;.;.;.Z     X x ,.<.<.<.<.<.<.,.=.h     = e.e.",
"e.e.e.e.e.e.e.e.e.e.e.e.e.e.e.e.e.e.e.e.e.e.e.e.e.e.e.e.e.e.e.e.9   X b ;.;.;.;.;.;.;.*.#   # -.<.<.<.<.<.<.<.<.<.<.:.C #   9 e.",
"e.e.e.e.e.e.e.e.e.e.e.e.e.e.e.e.e.e.e.e.e.e.e.e.e.e.e.e.e.e.e.G     V ;.;.;.;.;.;.;.;.1   # ;.<.<.<.<.<.<.<.<.<.<.<.,.;.Z     e.",
"e.e.e.e.e.e.e.e.e.e.e.e.e.e.e.e.e.e.e.e.e.e.e.e.e.e.e.e.e.e.e.    v ;.;.;.;.;.;.;.;.x     *.<.<.<.<.<.<.<.<.<.<.<.<.<.>.;.5   F ",
"e.e.e.e.e.e.e.e.e.e.e.e.e.e.e.e.e.e.e.e.e.e.e.e.e.e.e.e.e.e.O   j ;.;.;.;.;.;.;.;.*.X   x <.<.<.<.<.<.<.<.<.<.<.<.<.,.,.;.c   8 ",
"e.e.e.e.e.e.e.e.e.e.e.e.e.e.e.e.e.e.e.e.e.e.e.e.e.e.e.e.e.D   & ;.;.;.;.;.;.;.;.;.j   # ,.<.<.<.<.<.<.<.<.<.<.<.<.<.<.,.;.b   = ",
"e.e.e.e.e.e.e.e.e.e.e.e.e.e.e.e.e.e.e.e.e.e.e.e.e.e.e.e.e.    B ;.;.;.;.;.;.;.;.=.X   v <.<.<.<.<.<.<.<.<.<.<.<.<.<.<.>.;.x   7 ",
"e.e.e.e.e.e.e.e.e.e.e.e.e.e.e.e.e.e.e.e.e.e.e.e.e.e.e.e.9   3 ;.;.;.;.;.;.;.;.;.x   # ,.<.<.<.<.<.<.<.<.<.<.<.<.<.<.<.:.;.3   G ",
"e.e.e.e.e.e.e.e.e.e.e.e.e.e.e.e.e.e.e.e.e.e.F D H e.e.e.    Z ;.;.;.;.;.;.;.;.;.<   x ,.<.<.<.<.<.<.<.<.<.<.<.<.<.<.,.:.Z     e.",
"e.e.e.e.e.e.e.e.e.e.e.e.e.e.e.e.e.e.e.6               *   5 ;.;.;.;.;.;.;.;.;.Z     :.<.<.<.<.<.<.<.<.<.<.<.<.,.<.<.:.-.$   9 e.",
"e.e.e.e.e.e.e.e.e.e.e.e.e.e.e.e.e.6     o q a g t -       5 ;.;.;.;.;.;.;.;.;.k   < <.<.<.<.<.<.<.<.<.<.C # l ,.<.>.V #   * e.e.",
"e.e.e.e.e.e.e.e.e.e.e.e.e.e.e.e..   @ Y $.&.&.&.&.&./ 0     < *.;.;.;.;.;.;.;.1   c ,.<.<.<.<.<.<.<.<.<.c       & X     * e.e.e.",
"e.e.e.e.e.e.e.e.e.e.e.e.e.e.G     p $.&.&.&.&.&.&.&.&.&.U .   # *.;.;.;.;.;.=.    =.<.<.<.<.<.<.<.<.<.<.,.b $         A e.e.e.e.",
"e.e.e.e.e.e.e.e.e.e.e.e.e.F     Y &.&.&.&.&.&.&.&.&.&.&.&.| @   $ x h 3 3 h h   X <.<.<.<.<.<.<.<.<.<.<.<.<.,.C x     e.e.e.e.e.",
"e.e.e.e.e.e.e.e.e.e.e.e.F   . / &.&.&.&.&.&.&.&.&.&.&.&.&.&.~                   X b ,.,.<.<.<.<.<.<.<.<.<.<.,.=.3   6 e.e.e.e.e.",
"e.e.e.e.e.e.e.e.e.e.e.e.    ~ &.&.&.&.&.&.&.&.&.&.&.&.&.%.g       : s T I d >       # c <.<.<.<.<.,.;.Z v k 3 X     e.e.e.e.e.e.",
"e.e.e.e.e.e.e.e.e.e.e.    g &.&.&.&.&.&.&.&.&.&.&.&.&.$.,     e +.w.w.w.w.q.q.3.L @     2 ;.Z h $               * e.e.e.e.e.e.e.",
"e.e.e.e.e.e.e.e.e.e.O     + / &.&.&.&.&.&.&.&.&.&.&.#.;   o Q w.w.w.w.w.w.w.w.w.w.6.M .             O = 9 D e.e.e.e.e.e.e.e.e.e.",
"e.e.e.e.e.e.e.e.e.9   > ;   . U &.&.&.&.&.&.&.&.&.%.>   + O.w.w.w.w.w.w.w.w.w.w.w.w.9. .-     9 e.e.e.e.e.e.e.e.e.e.e.e.e.e.e.e.",
"e.e.e.e.e.e.e.e.e.     .$.q     a &.&.&.&.&.&.&.&.t   o O.w.w.w.w.w.w.w.w.w.w.w.w.w.w.9.#.,   * e.e.e.e.e.e.e.e.e.e.e.e.e.e.e.e.",
"e.e.e.e.e.e.e.e.    U &.&.&.f     t &.&.&.&.&.&.E     ` w.w.w.w.w.w.w.w.w.w.w.w.w.w.w.q.6.#.-   F e.e.e.e.e.e.e.e.e.e.e.e.e.e.e.",
"e.e.e.e.e.e.e.9   > &.&.&.&.&.Y   0 &.&.&.&.&.#.+   n w.w.w.w.w.w.w.w.w.w.w.w.w.w.w.w.w.q.&./     e.e.e.e.e.e.e.e.e.e.e.e.e.e.e.",
"e.e.e.e.e.e.e.    | &.&.&.&.&.&.#.&.&.&.&.&.&.r   - 0.w.w.w.w.w.w.w.w.w.w.w.w.w.w.w.w.w.q.6.&.,   K e.e.e.e.e.e.e.e.e.e.e.e.e.e.",
"e.e.e.e.e.e.=     P &.&.&.&.&.&.&.&.&.&.&.&.}     ] w.w.w.w.w.w.w.w.w.w.w.w.w.w.w.w.w.w.w.7.&.U   9 e.e.e.e.e.e.e.e.e.e.e.e.e.e.",
"e.e.e.e.e.e.        p &.&.&.&.&.&.&.&.&.&.&.4   w w.w.w.w.w.w.w.w.w.w.w.w.w.w.w.w.w.w.w.w.q.&. .  O e.e.e.e.e.e.e.e.e.e.e.e.e.e.",
"e.e.e.e.e.*   f f     g &.&.&.&.&.&.&.&.&.(       y 2.w.w.w.w.w.w.w.w.w.w.w.w.w.w.w.w.w.q.q.&.%.    e.e.e.e.e.e.e.e.e.e.e.e.e.e.",
"e.e.e.e.e.  . @.&.! - / &.&.&.&.&.&.&.&.&.q   %       s 4.w.w.w.w.w.w.w.w.w.w.w.w.w.w.w.w.q.&.&.    e.e.e.e.e.e.e.e.e.e.e.e.e.e.",
"e.e.e.e.=   a &.&.&.&.&.&.&.&.&.&.&.&.&. .    +.O.w     . m 8.w.w.w.w.w.w.w.w.w.w.y : ) q.q.&.$.    e.e.e.e.e.e.e.e.e.e.e.e.e.e.",
"e.e.e.e.    X.&.&.&.&.&.&.&.&.&.&.&.&.&.f   4 w.w.w.] >     s w.w.w.w.w.w.w.w.w.q.:     > ' &.|   7 e.e.e.e.e.e.e.e.e.e.e.e.e.e.",
"e.e.e.8   t &.&.&.&.&.&.&.&.&.&.&.&.&.&.@   ` w.w.w.w.w._ 4 ] w.q.{ q.w.w.w.w.w.w.8.m .     4 a   S e.e.e.e.e.e.e.e.e.e.e.e.e.e.",
"e.e.e.    ( &.&.&.&.&.&.&.&.&.&.&.&.&./   + q.w.w.w.w.w.w.w.w.w.N   - 2.w.w.w.w.w.w.w.4.n .       e.e.e.e.e.e.e.e.e.e.e.e.e.e.e.",
"e.e.H   - &.&.&.&.&.&.&.&.&.&.&.&.&.&.r   n w.w.w.w.w.w.w.w.w.w.] o   _ w.w.w.w.w.w.w.w.q. .r     e.e.e.e.e.e.e.e.e.e.e.e.e.e.e.",
"e.e.*   g &.&.&.&.&.&.&.&.&.&.&.&.&.$..   ` w.w.w.w.w.w.w.w.w.w.w.5.{ w.w.w.w.w.w.w.w.w.9.&.!   = e.e.e.e.e.e.e.e.e.e.e.e.e.e.e.",
"e.e.    X.&.&.&.&.&.&.&.&.&.&.&.&.&.~     . s 4.w.w.w.w.w.w.w.w.w.w.w.w.w.w.w.w.w.w.w.w.6.&.,   J e.e.e.e.e.e.e.e.e.e.e.e.e.e.e.",
"e.H     u &.&.&.&.&.&.&.&.&.&.&.&.&.p   +     . Q w.w.w.w.w.w.w.w.w.w.w.w.w.w.w.0.y s 3.&.}   O e.e.e.e.e.e.e.e.e.e.e.e.e.e.e.e.",
"e.6       , #.&.&.&.&.&.g ~ &.&.&.&.-   { ] :   e w.w.w.w.w.w.w.w.w.w.w.w.w.w.w.3.    . a r   S e.e.e.e.e.e.e.e.e.e.e.e.e.e.e.e.",
"e.    g .   - ..&.&.&.}     g &.&...  . 0.w.w.{ 4.w.w.w.w.w.w.w.w.w.w.w.w.w.w.w.w.{ >         e.e.e.e.e.e.e.e.e.e.e.e.e.e.e.e.e.",
"e.  + &.' @   @ &.&.&.&.p     r %.P   w q.w.w.w.w.w.w.w.w.w.w.w.w.w.w.w.w.w.w.w.w.w.7.! .   S e.e.e.e.e.e.e.e.e.e.e.e.e.e.e.e.e.",
"J   q &.&.X., a &.&.&.&.&.P     > 4   I w.w.w.w.w.w.w.w.w.w.w.w.w.w.w.w.w.w.w.w.w.9.&.E     e.e.e.e.e.e.e.e.e.e.e.e.e.e.e.e.e.e.",
"S   L &.&.&.&.&.&.&.&.&.&.&.^ o       o.w.w.w.w.w.w.w.w.w.w.w.w.w.w.w.w.w.w.w.w.q.6.@.+   G e.e.e.e.e.e.e.e.e.e.e.e.e.e.e.e.e.e.",
"7   ! &.&.&.&.&.&.&.&.&.&.&.&.| %   . q.w.w.w.w.w.w.w.w.w.w.w.w.w.w.w.w.w.w.w.q.7.&.q   = e.e.e.e.e.e.e.e.e.e.e.e.e.e.e.e.e.e.e.",
"*   ( &.&.&.&.&.&.&.&.&.&.&.&.} :   > w.w.w.w.w.w.w.w.w.w.w.w.w.w.w.w.w.w.w.w.q.6.!     e.e.e.e.e.e.e.e.e.e.e.e.e.e.e.e.e.e.e.e.",
"*   | &.&.&.&.&.&.&.&.&.&.#.a       u w.w.w.w.w.w.w.w.W _ w.w.w.w.w.w.w.w.w.w.&.X.+   D e.e.e.e.e.e.e.e.e.e.e.e.e.e.e.e.e.e.e.e.",
"6   ( &.&.&.&.&.&.&.&.$.L o         R w.w.w.w.w.w.w.2.    i w.w.w.w.w.w.w.w.9.%.> . 6 e.e.e.e.e.e.e.e.e.e.e.e.e.e.e.e.e.e.e.e.e.",
"A   Y &.&.&.&.&.&.#.g @     7 e.7   ] w.w.w.w.w.w.w.w.N . s w.w.q.w.w.w.w.9.&.t     e.e.e.e.e.e.e.e.e.e.e.e.e.e.e.e.e.e.e.e.e.e.",
"e.  - X.&.&.X.! q .     = e.e.e.O   { w.w.w.w.w.w.w.w.w.0.q.w.{ . y 1.q.q.&.P     e.e.e.e.e.e.e.e.e.e.e.e.e.e.e.e.e.e.e.e.e.e.e.",
"e.*     @ o         7 e.e.e.e.e.      y 2.w.w.w.w.w.w.w.w.w.w.`       s X./     F e.e.e.e.e.e.e.e.e.e.e.e.e.e.e.e.e.e.e.e.e.e.e.",
"e.e.8         7 J e.e.e.e.e.e.e.        . s 4.w.w.w.w.w.w.w.w.w.O.w     . o   A e.e.e.e.e.e.e.e.e.e.e.e.e.e.e.e.e.e.e.e.e.e.e.e.",
"e.e.e.e.e.e.e.e.e.e.e.e.e.e.e.e.  : o.4     o [ w.w.w.w.w.w.w.w.w.q./ ;     7 e.e.e.e.e.e.e.e.e.e.e.e.e.e.e.e.e.e.e.e.e.e.e.e.e.",
"e.e.e.e.e.e.e.e.e.e.e.e.e.e.e.e.  4 w.w.] :   Q w.w.w.w.w.w.w.w.q.7.X.-   = e.e.e.e.e.e.e.e.e.e.e.e.e.e.e.e.e.e.e.e.e.e.e.e.e.e.",
"e.e.e.e.e.e.e.e.e.e.e.e.e.e.e.e.  w w.w.w.w.2.w.w.w.w.w.w.w.w.w.7...%   = e.e.e.e.e.e.e.e.e.e.e.e.e.e.e.e.e.e.e.e.e.e.e.e.e.e.e.",
"e.e.e.e.e.e.e.e.e.e.e.e.e.e.e.e.  e w.w.w.w.w.w.w.w.w.w.w.w.q.7...%   * e.e.e.e.e.e.e.e.e.e.e.e.e.e.e.e.e.e.e.e.e.e.e.e.e.e.e.e.",
"e.e.e.e.e.e.e.e.e.e.e.e.e.e.e.e.  w w.w.w.w.w.w.w.w.w.w.w.q.7.} @   = e.e.e.e.e.e.e.e.e.e.e.e.e.e.e.e.e.e.e.e.e.e.e.e.e.e.e.e.e.",
"e.e.e.e.e.e.e.e.e.e.e.e.e.e.e.e.  : q.w.w.w.w.w.w.w.q.q.q.6.! .   7 e.e.e.e.e.e.e.e.e.e.e.e.e.e.e.e.e.e.e.e.e.e.e.e.e.e.e.e.e.e.",
"e.e.e.e.e.e.e.e.e.e.e.e.e.e.e.e.  + w.w.w.w.w.w.w.w.w.q.6.M     9 e.e.e.e.e.e.e.e.e.e.e.e.e.e.e.e.e.e.e.e.e.e.e.e.e.e.e.e.e.e.e.",
"e.e.e.e.e.e.e.e.e.e.e.e.e.e.e.e.O   5.w.w.w.w.w.w.w.9.@.q     G e.e.e.e.e.e.e.e.e.e.e.e.e.e.e.e.e.e.e.e.e.e.e.e.e.e.e.e.e.e.e.e.",
"e.e.e.e.e.e.e.e.e.e.e.e.e.e.e.e.A   ) w.w.w.w.w.w.7.Y o   O e.e.e.e.e.e.e.e.e.e.e.e.e.e.e.e.e.e.e.e.e.e.e.e.e.e.e.e.e.e.e.e.e.e.",
"e.e.e.e.e.e.e.e.e.e.e.e.e.e.e.e.e.  > w.w.w.q.q.} w     7 e.e.e.e.e.e.e.e.e.e.e.e.e.e.e.e.e.e.e.e.e.e.e.e.e.e.e.e.e.e.e.e.e.e.e.",
"e.e.e.e.e.e.e.e.e.e.e.e.e.e.e.e.e.*   y { O.U ,       K e.e.e.e.e.e.e.e.e.e.e.e.e.e.e.e.e.e.e.e.e.e.e.e.e.e.e.e.e.e.e.e.e.e.e.e.",
"e.e.e.e.e.e.e.e.e.e.e.e.e.e.e.e.e.e.              F e.e.e.e.e.e.e.e.e.e.e.e.e.e.e.e.e.e.e.e.e.e.e.e.e.e.e.e.e.e.e.e.e.e.e.e.e.e.",
"e.e.e.e.e.e.e.e.e.e.e.e.e.e.e.e.e.e.e.A * O 8 K e.e.e.e.e.e.e.e.e.e.e.e.e.e.e.e.e.e.e.e.e.e.e.e.e.e.e.e.e.e.e.e.e.e.e.e.e.e.e.e."
};
