/* XPM */
static char *result[] = {
/* columns rows colors chars-per-pixel */
"64 64 10 1 ",
"  c #F34336",
". c #F44335",
"X c #F44336",
"o c #F54336",
"O c #F54237",
"+ c #F44337",
"@ c #F54337",
"# c #F44436",
"$ c #F54436",
"% c None",
/* pixels */
"%%@XXX%%%%%%%%%%%%%%%%%%%%%%%%%%%%%%%%%%%%%%%%%%%%%%%%%%%%XXX$%%",
"%XXXXXX%%%%%%%%%%%%%%%%%%%%%%%%%%%%%%%%%%%%%%%%%%%%%%%%%%XXXXXX%",
"XXXXXXXX%%%%%%%%%%%%%%%%%%%%%%%%%%%%%%%%%%%%%%%%%%%%%%%%XXXXXXX ",
"XXXXXXXXX%%%%%%%%%%%%%%%%%%%%%%%%%%%%%%%%%%%%%%%%%%%%%%XXXXXXXXX",
"XXXXXXXXXX%%%%%%%%%%%%%%%%%%%%%%%%%%%%%%%%%%%%%%%%%%%%XXXXXXXXXX",
"OXXXXXXXXXX%%%%%%%%%%%%%%%%%%%%%%%%%%%%%%%%%%%%%%%%%%XXXXXXXXXXo",
"%XXXXXXXXXXX%%%%%%%%%%%%%%%%%%%%%%%%%%%%%%%%%%%%%%%%XXXXXXXXXXX%",
"%%XXXXXXXXXXX%%%%%%%%%%%%%%%%%%%%%%%%%%%%%%%%%%%%%%XXXXXXXXXXX%%",
"%%%XXXXXXXXXXX%%%%%%%%%%%%%%%%%%%%%%%%%%%%%%%%%%%%XXXXXXXXXXX%%%",
"%%%%XXXXXXXXXXX%%%%%%%%%%%%%%%%%%%%%%%%%%%%%%%%%%XXXXXXXXXXX%%%%",
"%%%%%XXXXXXXXXXX%%%%%%%%%%%%%%%%%%%%%%%%%%%%%%%%XXXXXXXXXXX%%%%%",
"%%%%%%XXXXXXXXXXX%%%%%%%%%%%%%%%%%%%%%%%%%%%%%%XXXXXXXXXXX%%%%%%",
"%%%%%%%XXXXXXXXXXX%%%%%%%%%%%%%%%%%%%%%%%%%%%%XXXXXXXXXXX%%%%%%%",
"%%%%%%%%XXXXXXXXXXX%%%%%%%%%%%%%%%%%%%%%%%%%%XXXXXXXXXXX%%%%%%%%",
"%%%%%%%%%XXXXXXXXXXX%%%%%%%%%%%%%%%%%%%%%%%%XXXXXXXXXXX%%%%%%%%%",
"%%%%%%%%%%XXXXXXXXXXX%%%%%%%%%%%%%%%%%%%%%%XXXXXXXXXXX%%%%%%%%%%",
"%%%%%%%%%%%XXXXXXXXXXX%%%%%%%%%%%%%%%%%%%%XXXXXXXXXXX%%%%%%%%%%%",
"%%%%%%%%%%%%XXXXXXXXXXX%%%%%%%%%%%%%%%%%%XXXXXXXXXXX%%%%%%%%%%%%",
"%%%%%%%%%%%%%XXXXXXXXXXX%%%%%%%%%%%%%%%%XXXXXXXXXXX%%%%%%%%%%%%%",
"%%%%%%%%%%%%%%XXXXXXXXXXX%%%%%%%%%%%%%%XXXXXXXXXXX%%%%%%%%%%%%%%",
"%%%%%%%%%%%%%%%XXXXXXXXXXX%%%%%%%%%%%%XXXXXXXXXXX%%%%%%%%%%%%%%%",
"%%%%%%%%%%%%%%%%XXXXXXXXXXX%%%%%%%%%%XXXXXXXXXXX%%%%%%%%%%%%%%%%",
"%%%%%%%%%%%%%%%%%XXXXXXXXXXX%%%%%%%%XXXXXXXXXXX%%%%%%%%%%%%%%%%%",
"%%%%%%%%%%%%%%%%%%XXXXXXXXXXX%%%%%%XXXXXXXXXXX%%%%%%%%%%%%%%%%%%",
"%%%%%%%%%%%%%%%%%%%XXXXXXXXXXX%%%%XXXXXXXXXXX%%%%%%%%%%%%%%%%%%%",
"%%%%%%%%%%%%%%%%%%%%XXXXXXXXXXX%%XXXXXXXXXXX%%%%%%%%%%%%%%%%%%%%",
"%%%%%%%%%%%%%%%%%%%%%XXXXXXXXXX.XXXXXXXXXXX%%%%%%%%%%%%%%%%%%%%%",
"%%%%%%%%%%%%%%%%%%%%%%XXXXXXXXXXXXXXXXXXXX%%%%%%%%%%%%%%%%%%%%%%",
"%%%%%%%%%%%%%%%%%%%%%%%XXXXXXXXXXXXXXXXXX%%%%%%%%%%%%%%%%%%%%%%%",
"%%%%%%%%%%%%%%%%%%%%%%%%XXXXXXXXXXXXXXXX%%%%%%%%%%%%%%%%%%%%%%%%",
"%%%%%%%%%%%%%%%%%%%%%%%%%XXXXXXXXXXXXXX%%%%%%%%%%%%%%%%%%%%%%%%%",
"%%%%%%%%%%%%%%%%%%%%%%%%%%XXXXXXXXXXXX%%%%%%%%%%%%%%%%%%%%%%%%%%",
"%%%%%%%%%%%%%%%%%%%%%%%%%%#XXXXXXXXXX.%%%%%%%%%%%%%%%%%%%%%%%%%%",
"%%%%%%%%%%%%%%%%%%%%%%%%%XXXXXXXXXXXXXX%%%%%%%%%%%%%%%%%%%%%%%%%",
"%%%%%%%%%%%%%%%%%%%%%%%%XXXXXXXXXXXXXXXX%%%%%%%%%%%%%%%%%%%%%%%%",
"%%%%%%%%%%%%%%%%%%%%%%%XXXXXXXXXXXXXXXXXX%%%%%%%%%%%%%%%%%%%%%%%",
"%%%%%%%%%%%%%%%%%%%%%%XXXXXXXXXXXXXXXXXXXX%%%%%%%%%%%%%%%%%%%%%%",
"%%%%%%%%%%%%%%%%%%%%%XXXXXXXXXXoXXXXXXXXXXX%%%%%%%%%%%%%%%%%%%%%",
"%%%%%%%%%%%%%%%%%%%%XXXXXXXXXXX%%XXXXXXXXXXX%%%%%%%%%%%%%%%%%%%%",
"%%%%%%%%%%%%%%%%%%%XXXXXXXXXXX%%%%XXXXXXXXXXX%%%%%%%%%%%%%%%%%%%",
"%%%%%%%%%%%%%%%%%%XXXXXXXXXXX%%%%%%XXXXXXXXXXX%%%%%%%%%%%%%%%%%%",
"%%%%%%%%%%%%%%%%%XXXXXXXXXXX%%%%%%%%XXXXXXXXXXX%%%%%%%%%%%%%%%%%",
"%%%%%%%%%%%%%%%%XXXXXXXXXXX%%%%%%%%%%XXXXXXXXXXX%%%%%%%%%%%%%%%%",
"%%%%%%%%%%%%%%%XXXXXXXXXXX%%%%%%%%%%%%XXXXXXXXXXX%%%%%%%%%%%%%%%",
"%%%%%%%%%%%%%%XXXXXXXXXXX%%%%%%%%%%%%%%XXXXXXXXXXX%%%%%%%%%%%%%%",
"%%%%%%%%%%%%%XXXXXXXXXXX%%%%%%%%%%%%%%%%XXXXXXXXXXX%%%%%%%%%%%%%",
"%%%%%%%%%%%%XXXXXXXXXXX%%%%%%%%%%%%%%%%%%XXXXXXXXXXX%%%%%%%%%%%%",
"%%%%%%%%%%%XXXXXXXXXXX%%%%%%%%%%%%%%%%%%%%XXXXXXXXXXX%%%%%%%%%%%",
"%%%%%%%%%%XXXXXXXXXXX%%%%%%%%%%%%%%%%%%%%%%XXXXXXXXXXX%%%%%%%%%%",
"%%%%%%%%%XXXXXXXXXXX%%%%%%%%%%%%%%%%%%%%%%%%XXXXXXXXXXX%%%%%%%%%",
"%%%%%%%%XXXXXXXXXXX%%%%%%%%%%%%%%%%%%%%%%%%%%XXXXXXXXXXX%%%%%%%%",
"%%%%%%%XXXXXXXXXXX%%%%%%%%%%%%%%%%%%%%%%%%%%%%XXXXXXXXXXX%%%%%%%",
"%%%%%%XXXXXXXXXXX%%%%%%%%%%%%%%%%%%%%%%%%%%%%%%XXXXXXXXXXX%%%%%%",
"%%%%%XXXXXXXXXXX%%%%%%%%%%%%%%%%%%%%%%%%%%%%%%%%XXXXXXXXXXX%%%%%",
"%%%%XXXXXXXXXXX%%%%%%%%%%%%%%%%%%%%%%%%%%%%%%%%%%XXXXXXXXXXX%%%%",
"%%%XXXXXXXXXXX%%%%%%%%%%%%%%%%%%%%%%%%%%%%%%%%%%%%XXXXXXXXXXX%%%",
"%%XXXXXXXXXXX%%%%%%%%%%%%%%%%%%%%%%%%%%%%%%%%%%%%%%XXXXXXXXXXX%%",
"%XXXXXXXXXXX%%%%%%%%%%%%%%%%%%%%%%%%%%%%%%%%%%%%%%%%XXXXXXXXXXX%",
"+XXXXXXXXXX%%%%%%%%%%%%%%%%%%%%%%%%%%%%%%%%%%%%%%%%%%XXXXXXXXXX.",
"XXXXXXXXXX%%%%%%%%%%%%%%%%%%%%%%%%%%%%%%%%%%%%%%%%%%%%XXXXXXXXXX",
"XXXXXXXXX%%%%%%%%%%%%%%%%%%%%%%%%%%%%%%%%%%%%%%%%%%%%%%XXXXXXXXX",
".XXXXXXX%%%%%%%%%%%%%%%%%%%%%%%%%%%%%%%%%%%%%%%%%%%%%%%%XXXXXXX#",
"%XXXXXX%%%%%%%%%%%%%%%%%%%%%%%%%%%%%%%%%%%%%%%%%%%%%%%%%%XXXXXX%",
"%% XXX%%%%%%%%%%%%%%%%%%%%%%%%%%%%%%%%%%%%%%%%%%%%%%%%%%%%XXXO%%"
};
