/* XPM */
static char *result[] = {
/* columns rows colors chars-per-pixel */
"64 64 35 1 ",
"  c #F44336",
". c #F54336",
"X c #F44436",
"o c #F44437",
"O c #F44538",
"+ c #F44638",
"@ c #F44639",
"# c #F4473A",
"$ c #F4483B",
"% c #F4483C",
"& c #F4493D",
"* c #F44A3D",
"= c #F44E42",
"- c #F45044",
"; c #F45145",
": c #F45347",
"> c #F45348",
", c #F5594E",
"< c #F55B50",
"1 c #F6695E",
"2 c #F76D65",
"3 c #F76F65",
"4 c #F6756B",
"5 c #F6756C",
"6 c #F77B71",
"7 c #F77B72",
"8 c #F67E75",
"9 c #F87E77",
"0 c #F7837A",
"q c #F7857C",
"w c #F78C84",
"e c #F88B83",
"r c #F9918A",
"t c #F9938B",
"y c None",
/* pixels */
"yyr,>7yyyyyyyyyyyyyyyyyyyyyyyyyyyyyyyyyyyyyyyyyyyyyyyyyyyy6:,tyy",
"y<    $yyyyyyyyyyyyyyyyyyyyyyyyyyyyyyyyyyyyyyyyyyyyyyyyyy#    <y",
"e      @yyyyyyyyyyyyyyyyyyyyyyyyyyyyyyyyyyyyyyyyyyyyyyyy@      w",
";       @yyyyyyyyyyyyyyyyyyyyyyyyyyyyyyyyyyyyyyyyyyyyyy@       :",
"$        @yyyyyyyyyyyyyyyyyyyyyyyyyyyyyyyyyyyyyyyyyyyy@        &",
"2         @yyyyyyyyyyyyyyyyyyyyyyyyyyyyyyyyyyyyyyyyyy@         3",
"yo         @yyyyyyyyyyyyyyyyyyyyyyyyyyyyyyyyyyyyyyyy@         oy",
"yy          @yyyyyyyyyyyyyyyyyyyyyyyyyyyyyyyyyyyyyy@          yy",
"yyy          Oyyyyyyyyyyyyyyyyyyyyyyyyyyyyyyyyyyyy@          yyy",
"yyyy          Oyyyyyyyyyyyyyyyyyyyyyyyyyyyyyyyyyy@          yyyy",
"yyyyy          Oyyyyyyyyyyyyyyyyyyyyyyyyyyyyyyyy@          yyyyy",
"yyyyyy          Oyyyyyyyyyyyyyyyyyyyyyyyyyyyyyy@          yyyyyy",
"yyyyyyy          Oyyyyyyyyyyyyyyyyyyyyyyyyyyyy@          yyyyyyy",
"yyyyyyyy          Oyyyyyyyyyyyyyyyyyyyyyyyyyy@          yyyyyyyy",
"yyyyyyyyy          Oyyyyyyyyyyyyyyyyyyyyyyyy@          yyyyyyyyy",
"yyyyyyyyyy          Oyyyyyyyyyyyyyyyyyyyyyy@          yyyyyyyyyy",
"yyyyyyyyyyy          Oyyyyyyyyyyyyyyyyyyyy@          yyyyyyyyyyy",
"yyyyyyyyyyyy          Oyyyyyyyyyyyyyyyyyy@          yyyyyyyyyyyy",
"yyyyyyyyyyyyy          Oyyyyyyyyyyyyyyyy@          yyyyyyyyyyyyy",
"yyyyyyyyyyyyyy          Oyyyyyyyyyyyyyy@          yyyyyyyyyyyyyy",
"yyyyyyyyyyyyyyy          Oyyyyyyyyyyyy@          yyyyyyyyyyyyyyy",
"yyyyyyyyyyyyyyyy          Oyyyyyyyyyy@          yyyyyyyyyyyyyyyy",
"yyyyyyyyyyyyyyyyy          Oyyyyyyyy@          yyyyyyyyyyyyyyyyy",
"yyyyyyyyyyyyyyyyyy          Oyyyyyy@          yyyyyyyyyyyyyyyyyy",
"yyyyyyyyyyyyyyyyyyy          Oyyyy@          yyyyyyyyyyyyyyyyyyy",
"yyyyyyyyyyyyyyyyyyyy          Oyy@          yyyyyyyyyyyyyyyyyyyy",
"yyyyyyyyyyyyyyyyyyyyy          XO          yyyyyyyyyyyyyyyyyyyyy",
"yyyyyyyyyyyyyyyyyyyyyy                    yyyyyyyyyyyyyyyyyyyyyy",
"yyyyyyyyyyyyyyyyyyyyyyy                  yyyyyyyyyyyyyyyyyyyyyyy",
"yyyyyyyyyyyyyyyyyyyyyyyy                yyyyyyyyyyyyyyyyyyyyyyyy",
"yyyyyyyyyyyyyyyyyyyyyyyyy              yyyyyyyyyyyyyyyyyyyyyyyyy",
"yyyyyyyyyyyyyyyyyyyyyyyyyy            yyyyyyyyyyyyyyyyyyyyyyyyyy",
"yyyyyyyyyyyyyyyyyyyyyyyyyy+          Xyyyyyyyyyyyyyyyyyyyyyyyyyy",
"yyyyyyyyyyyyyyyyyyyyyyyyy@            Oyyyyyyyyyyyyyyyyyyyyyyyyy",
"yyyyyyyyyyyyyyyyyyyyyyyy@              Oyyyyyyyyyyyyyyyyyyyyyyyy",
"yyyyyyyyyyyyyyyyyyyyyyy@                Oyyyyyyyyyyyyyyyyyyyyyyy",
"yyyyyyyyyyyyyyyyyyyyyy@                  Oyyyyyyyyyyyyyyyyyyyyyy",
"yyyyyyyyyyyyyyyyyyyyy@         .          Oyyyyyyyyyyyyyyyyyyyyy",
"yyyyyyyyyyyyyyyyyyyy@          yy          Oyyyyyyyyyyyyyyyyyyyy",
"yyyyyyyyyyyyyyyyyyy@          yyyy          Oyyyyyyyyyyyyyyyyyyy",
"yyyyyyyyyyyyyyyyyy@          yyyyyy          Oyyyyyyyyyyyyyyyyyy",
"yyyyyyyyyyyyyyyyy@          yyyyyyyy          Oyyyyyyyyyyyyyyyyy",
"yyyyyyyyyyyyyyyy@          yyyyyyyyyy          Oyyyyyyyyyyyyyyyy",
"yyyyyyyyyyyyyyy@          yyyyyyyyyyyy          Oyyyyyyyyyyyyyyy",
"yyyyyyyyyyyyyy@          yyyyyyyyyyyyyy          Oyyyyyyyyyyyyyy",
"yyyyyyyyyyyyy@          yyyyyyyyyyyyyyyy          Oyyyyyyyyyyyyy",
"yyyyyyyyyyyy@          yyyyyyyyyyyyyyyyyy          Oyyyyyyyyyyyy",
"yyyyyyyyyyy@          yyyyyyyyyyyyyyyyyyyy          Oyyyyyyyyyyy",
"yyyyyyyyyy@          yyyyyyyyyyyyyyyyyyyyyy          Oyyyyyyyyyy",
"yyyyyyyyy@          yyyyyyyyyyyyyyyyyyyyyyyy          Oyyyyyyyyy",
"yyyyyyyy@          yyyyyyyyyyyyyyyyyyyyyyyyyy          Oyyyyyyyy",
"yyyyyyy@          yyyyyyyyyyyyyyyyyyyyyyyyyyyy          Oyyyyyyy",
"yyyyyy@          yyyyyyyyyyyyyyyyyyyyyyyyyyyyyy          Oyyyyyy",
"yyyyy@          yyyyyyyyyyyyyyyyyyyyyyyyyyyyyyyy          Oyyyyy",
"yyyy@          yyyyyyyyyyyyyyyyyyyyyyyyyyyyyyyyyy          Oyyyy",
"yyy@          yyyyyyyyyyyyyyyyyyyyyyyyyyyyyyyyyyyy          Oyyy",
"yy@          yyyyyyyyyyyyyyyyyyyyyyyyyyyyyyyyyyyyyy          Oyy",
"y#          yyyyyyyyyyyyyyyyyyyyyyyyyyyyyyyyyyyyyyyy          #y",
"5          yyyyyyyyyyyyyyyyyyyyyyyyyyyyyyyyyyyyyyyyyy          4",
"&         yyyyyyyyyyyyyyyyyyyyyyyyyyyyyyyyyyyyyyyyyyyy         *",
"=        yyyyyyyyyyyyyyyyyyyyyyyyyyyyyyyyyyyyyyyyyyyyyy        -",
"0       yyyyyyyyyyyyyyyyyyyyyyyyyyyyyyyyyyyyyyyyyyyyyyyy       q",
"y;     yyyyyyyyyyyyyyyyyyyyyyyyyyyyyyyyyyyyyyyyyyyyyyyyyy     ;y",
"yy8% 1yyyyyyyyyyyyyyyyyyyyyyyyyyyyyyyyyyyyyyyyyyyyyyyyyyyy1 %9yy"
};
