/* XPM */
static char *_6d52dda2d87408cc4314ecc6c7a788fcL7xTbPjasj5PJfF[] = {
/* columns rows colors chars-per-pixel */
"64 64 175 2 ",
"   c None",
".  c #010101",
"X  c #060708",
"o  c #070809",
"O  c #0B0C0C",
"+  c #0A0306",
"@  c #130209",
"#  c #16030A",
"$  c #0B0F10",
"%  c #0E1113",
"&  c #121313",
"*  c #111719",
"=  c #141A1C",
"-  c #1B1C1C",
";  c #23040F",
":  c #330716",
">  c #3D081A",
",  c #3E071F",
"<  c #280511",
"1  c #171D21",
"2  c #1A1F22",
"3  c #1A2125",
"4  c #1C2529",
"5  c #1F282D",
"6  c #232424",
"7  c #2B2C2C",
"8  c #20292E",
"9  c #232E33",
"0  c #312D38",
"q  c #263237",
"w  c #29363C",
"e  c #2B3439",
"r  c #333434",
"t  c #353738",
"y  c #36393A",
"u  c #3A3B3C",
"i  c #3C303E",
"p  c #440822",
"a  c #5E0C28",
"s  c #560B24",
"d  c #670D2C",
"f  c #7B0E3E",
"g  c #700E30",
"h  c #2D3B42",
"j  c #323E44",
"k  c #3C3F40",
"l  c #3E4142",
"z  c #34444B",
"x  c #3A4C55",
"c  c #3D4F58",
"v  c #3F525B",
"b  c #434445",
"n  c #4C4D4D",
"m  c #46494A",
"M  c #494E50",
"N  c #4E5153",
"B  c #41545E",
"V  c #555555",
"C  c #55595B",
"Z  c #5B5D5D",
"A  c #545759",
"S  c #455A64",
"D  c #475A63",
"F  c #4C626D",
"G  c #5D6162",
"H  c #50626F",
"J  c #4F6671",
"K  c #516A76",
"L  c #546D79",
"P  c #5D6E7D",
"I  c #57717E",
"U  c #656565",
"Y  c #656A6C",
"T  c #6C6C6C",
"R  c #636769",
"E  c #6A6F71",
"W  c #6E7275",
"Q  c #727272",
"!  c #717678",
"~  c #767C7E",
"^  c gray48",
"/  c #811137",
"(  c #95133F",
")  c #820F41",
"_  c #971340",
"`  c #A61547",
"'  c #B6184E",
"]  c #AD1457",
"[  c #B11557",
"{  c #BD1851",
"}  c #BF175B",
"|  c #9D2358",
" . c #BB3E70",
".. c #BB386C",
"X. c #C31953",
"o. c #CC1A5B",
"O. c #C1175B",
"+. c #D31B59",
"@. c #DC1C5D",
"#. c #DA1B60",
"$. c #E51E62",
"%. c #E91E63",
"&. c #DE2666",
"*. c #DB2867",
"=. c #D32D69",
"-. c #D82A68",
";. c #CB336C",
":. c #C2396E",
">. c #C5356D",
",. c #E32265",
"<. c #8D5E7E",
"1. c #9C5479",
"2. c #935A7C",
"3. c #A54D77",
"4. c #AA4A76",
"5. c #A34F78",
"6. c #B44373",
"7. c #B84071",
"8. c #A25078",
"9. c #88617F",
"0. c #5B7583",
"q. c #5D7986",
"w. c #5F7C8A",
"e. c #6C6F83",
"r. c #7F6782",
"t. c #746D83",
"y. c #7A6C84",
"u. c #6A7486",
"i. c #607D8B",
"p. c #687889",
"a. c #647786",
"s. c #717286",
"d. c #7A7F81",
"f. c #846480",
"g. c #65818E",
"h. c #7D8285",
"j. c #79888E",
"k. c #6A8592",
"l. c #6E8895",
"z. c #718A96",
"x. c #7A939E",
"c. c #7D95A0",
"v. c #808688",
"b. c #858B8D",
"n. c #888E91",
"m. c #8C9295",
"M. c #90979A",
"N. c #949A9D",
"B. c #879DA8",
"V. c #859BA6",
"C. c #969DA0",
"Z. c #999FA2",
"A. c #9BA2A5",
"S. c #9FA6A9",
"D. c #9AADB6",
"F. c #A0A7AA",
"G. c #A2A9AC",
"H. c #A7AEB1",
"J. c #ABB2B5",
"K. c #A2B3BB",
"L. c #AEB6B9",
"P. c #B3BBBF",
"I. c #ACBBC2",
"U. c #B5BDC0",
"Y. c #BAC2C5",
"T. c #BDC6CA",
"R. c #BDC9CF",
"E. c #B4C2C8",
"W. c #BFCBD1",
"Q. c #C1C9CD",
"!. c #C4CED2",
"~. c #C6D0D4",
"^. c #CAD2D6",
"/. c #CDD6DA",
"(. c #CFD8DC",
/* pixels */
"                            T r O t U                                                     U u O 7 T                             ",
"                        u . . . . . . . b                                             b . . . . . . . t                         ",
"                      = . X w B J B h X . O                                         O . X w B J B w X . &                       ",
"                    - . * K 9.6.>.6.9.L 2 . 6                                     7 . 1 K y.5.>.7.<.L = . &                     ",
"                    . O 0.6.o._ $.%.%. .0.% . T                                   . O 0.4.$./ s a ' 7.a.% .                     ",
"                  & . x 1.' @ . ( %.%.%.3.S . .                                 X . D <.@.< . . . . @.3.v . O                   ",
"                  . X i.,.: . ; @.%.%.%.,.u.= .                                 . * p.,.g . + d s d %.,.p.O .                   ",
"                  . % s.@.. . X.%.%.%.%.%.8.x . 6                             7 . z 1.%.` : { %.%.%.%.%.y.= .                   ",
"                  . 1 y.@.. . X.%.%.%.%.%.-.0.X .                             . . 0.=.%.%.%.%.%.%.%.%.%.r.3 .                   ",
"                  . X 0.-.> . X.%.%.%.%.%.%.9.9 . Z                         U . 8 r.%.` +.%.%.%.%.%.%.*.q.X .                   ",
"                  6 . v 3.@.X.%.%.%.%.%.%.%.:.S . O                         O . S 7.{ . > %.%.%.%.%.%.4.B . -                   ",
"                  ^ . * a.*.%.+.+.%.%.%.%.%.$.s.% .                         . O u.,.@.a ` %.%.%.%.%.,.u.= .                     ",
"                    O . x 2.%.# @ $.%.%.%.%.%.3.j . t                     b . h 1.%.%.%.%.%.%.%.%.%.1.x . O                     ",
"                      . o 0.=.d s %.%.%.%.%.%.*.L . .                     . . K =.%.%.%.%.%.%.%.%.-.0.O .                       ",
"                      6 . w f.%.%.%.%.%.%.%.%.%.<.3 . Q                 ^ . 2 f.%.%.%.%.%.%.%.%.%.<.h . -                       ",
"                        . . K :.%.%.%.%.%.%.%.%.:.v . &                 - . c  .%.%.%.%.%.%.%.%.>.K . .                         ",
"                        b . 3 y.$.%.%.%.%.%.%.%.%.t.o .                 . X e.,.%.%.%.%.%.%.%.%.r.4 . u                         ",
"                          X . B 6.%.%.%.%.%.%.%.%.4.w . m             A . q 8.%.%.%.%.%.%.%.%. .S . .                           ",
"                          T . % u.,.%.%.%.%.%.%.%.*.H . .             X . F -.%.%.%.%.%.%.%.,.e.% . U                           ",
"                            & . z 5.%.%.%.%.%.%.%.%.2.* .             . & 9.%.%.%.%.%.%.%.%.4.z . &                             ",
"                              . X P *.%.%.%.%.%.%.%.>.h . 6         7 . h ..%.%.%.%.%.%.%.*.P X .                               ",
"                              r . 9 2.%.%.%.%.%.#.O.] i . . V A A A . . 0 ] } #.%.%.%.%.%.1.q . 7                               ",
"                                . . F ;.%.%.#.[ f p @ . . . . . . . . . . + p f [ #.%.%.=.F . .                                 ",
"                                A . = f.%.o.) # . . . & u N R W W Y M q O . . . @ f o.%.9.1 . n                                 ",
"                                  O . x | p . . O G S./.(.(.(.(.(.(.(.(./.j.j O . . , | c . X                                   ",
"                                    . X X . X G Q.(.(.(.(.(.(.(.(.(.(.(.(.(.~.z.h X . X X . ^                                   ",
"                                    - . . - J.(.(.(.(.(.(.(.(.(.(.(.(.(.(.(.(./.B.K % . . =                                     ",
"                                    O . r T.(.(.(.(.(.(.(.(.(.(.(.(.(.(.(.(.(.(.(.B.0.4 . O                                     ",
"                                  r . 6 !.(.(.(.(.^.P./.(.(.(.(.(.(.(.(.(.P.!.(.(./.x.q.= . 6                                   ",
"                                Q . % U.(.(.F.A & . . Z (.(.(.(.(.(.(.(.Y . . & N A.!.g.I O . Z                                 ",
"                                X . b.(.(.C.. . . . O h.(.(.(.(.(.(.(.(.n.O . . . . Y D.i.S . .                                 ",
"                              T . 7 /.(.(.S.= u W S.^.(.(.(.(.(.(.(.(.(.(./.G.W u & h./.z.i.2 . Z                               ",
"                              O . N.(.(.(.(.(.(.(.(.(.(.(.(.(.(.(.(.(.(.(.(.(.(.(.(.(.(.D.i.F . .                               ",
"                              . % /.(.(.(.(.(.(.(.(.(.(.(.(.(.(.(.(.(.(.(.(.(.(.(.(.(.(.!.i.i.% .                               ",
"                            U . N (.(.(.(.(.G.t M.(.L.u v.(.(.(.(.(.(.m.y H.(.C.t A.(.(.(.c.i.w . A                             ",
"                            7 . b.(.(.(.(.(.~ . . ! & . b (.(.(.(.(.(.N . O ! X . E (.(.(.D.i.S . =                             ",
"                            & . F.(.(.(.(.(.^.l . . . - U.(.(.(.(.(.(.T.6 . . . y ~.(.(.(.I.i.K . X                             ",
"                            . . U.(.(.(.(.(.(.L.. . . h.(.(.(.(.(.(.(.(.n.. . . G.(.(.(.(.R.i.0.. .                             ",
"                            . . !.(.(.(.(.(.Y.= . X . X M.(.(.(.(.(.(.A.X . X . & L.(.(.(.~.i.i.. .                             ",
"                          X . r (.(.(.(.(.(.~ . - P.l . u (.(.(.(.(.(.b . y U.6 . R (.(.(.~.i.i.5 . X                           ",
"                      Q . . y T.(.(.(.(.(.(.~.h.T.(.^.h.J.(.(.(.(.(.(.L.d.^.(.Q.~ Y.(.(.(.(.K.i.0.3 . .                         ",
"                      . . Y /.(.(.(.(.(.(.(.(.(.(.(.(.(.(.(.(.(.(.(.(.(.(.(.(.(.(.(.(.(.(.(.(.E.k.w.w . .                       ",
"                    O . G (.(.(.(.(.(.(.(.(.(.(.(.(.(.(.(.(.(.(.(.(.(.(.(.(.(.(.(.(.(.(.(.(.(.(.R.g.i.z . X                     ",
"                  u . r /.(.(.(.(.(.(.(.(.(.(.(.(.(.(.(.(.U.T.(.(.Q.U.(.(.(.(.(.(.(.(.(.(.(.(.(.(.K.i.w.= . V                   ",
"                  . . U.(.(.(.(.(.(.(.(.(.(.(.(.(.(.(.(.Q.O X A G o X Y.(.(.(.(.(.(.(.(.(.(.(.(.(.(.B.i.J . .                   ",
"                U . b (.(.(.(.(.(.(.(.(.(.(.(.(.(.(.(.(.^.u . . . . 7 !.(.(.(.(.(.(.(.(.(.(.(.(.(.(.R.i.i.e . b                 ",
"                O . A.(.(.(.(.(.(.(.(.(.(.(.(.(.(.(.(.(.(.(.M.. . b./.(.(.(.(.(.(.(.(.(.(.(.(.(.(.(.(.V.i.S . &                 ",
"                . o /.(.(.(.(.(.(.(.(.(.(.(.(.(.(.(.(.(./.N.N . . m M.^.(.(.(.(.(.(.(.(.(.(.(.(.(.(.(.I.i.q.. .                 ",
"                . 6 (.(.(.(.(.(.(.(.(.(.(.(.(.(.(.(.(.!.6 . . . . . . = T.(.(.(.(.(.(.(.(.(.(.(.(.(.(.~.i.i.= .                 ",
"                . l (.(.(.(.(.(.(.(.(.(.(.(.(.(.(.(.(.~.% O n M.N.N O o U.(.(.(.(.(.(.(.(.(.(.(.(.(.(.(.k.i.9 .                 ",
"                . k (.(.(.(.(.(.(.(.(.(.(.(.(.(.(.(.(.(./.^.(.(.(.(./.~.(.(.(.(.(.(.(.(.(.(.(.(.(.(.(.(.c.i.4 .                 ",
"                . & (.(.(.(.(.(.(.(.(.(.(.(.(.(.(.(.(.(.(.(.(.(.(.(.(.(.(.(.(.(.(.(.(.(.(.(.(.(.(.(.(.(.k.i.= .                 ",
"                . . U.(.(.(.(.(.(.(.(.(.(.(.(.(.(.(.(.(.(.(.(.(.(.(.(.(.(.(.(.(.(.(.(.(.(.(.(.(.(.(.(.R.i.i.$ .                 ",
"                O . m.(.(.(.(.(.(.(.(.(.(.(.(.(.(.(.(.(.(.(.(.(.(.(.(.(.(.(.(.(.(.(.(.(.(.(.(.(.(.(.(.K.i.L . .                 ",
"                n . A (.(.(.(.(.(.(.(.(.(.(.(.(.(.(.(.(.(.(.(.(.(.(.(.(.(.(.(.(.(.(.(.(.(.(.(.(.(.(.(.V.i.w . u                 ",
"                  . . F.(.(.(.(.(.(.(.(.(.(.(.(.(.(.(.(.(.(.(.(.(.(.(.(.(.(.(.(.(.(.(.(.(.(.(.(.(.(.!.g.0.X .                   ",
"                  t . 2 ~.(.(.(.(.(.(.(.(.(.(.(.(.(.(.(.(.(.(.F.A.(.(.(.(.(.(.(.(.(.(.(.(.(.(.(.(.(.x.i.h . r                   ",
"                    . . Z (.(.(.(.(.(.(.(.(.(.(.(.(.(.(.(.(./.O X !.(.(.(.(.(.(.(.(.(.(.(.(.(.(.(.K.i.v . .                     ",
"                      . . E /.(.(.(.(.(.(.(.(.(.(.(.(.(.(.(.!.. . Y.(.(.(.(.(.(.(.(.(.(.(.(.(.(.!.g.S . . Z                     ",
"                      U . . 7 L.(.(.(.(.(.(.(.(.(.(.(.(.(.(.H.. . Z.(.(.(.(.(.(.(.(.(.(.(.(.(.W.l.c X . A                       ",
"                          . . X ! ^.(.(.(.(.(.(.(.(.(.(.(.(.b . . y /.(.(.(.(.(.(.(.(.(.(.(.E.D * . . n                         ",
"                            = . . X 7 A v.J.U.U.U.U.U.U.C.k . . . . t N.P.U.U.U.U.U.P.Z.W j * . . O                             ",
"                                & . . . . . . . . . . . . . . . . . . . . . . . . . . . . . . X                                 ",
"                                                      . . . . . . . . . . . . . . . . 6 m Q                                     "
};
