/* XPM */
static char *result[] = {
/* columns rows colors chars-per-pixel */
"64 64 170 2 ",
"   c #000000",
".  c #0B0206",
"X  c #060708",
"o  c #070809",
"O  c #0B0C0D",
"+  c #080608",
"@  c #130209",
"#  c #16030A",
"$  c #0B0F10",
"%  c #0E1113",
"&  c #121414",
"*  c #111719",
"=  c #141A1C",
"-  c #1A1B1C",
";  c #23040F",
":  c #280511",
">  c #330716",
",  c #3D081A",
"<  c #3E071F",
"1  c #171D21",
"2  c #1A1F22",
"3  c #1A2125",
"4  c #1C2529",
"5  c #1F282D",
"6  c #232525",
"7  c #2B2D2D",
"8  c #20292E",
"9  c #232E33",
"0  c #312D38",
"q  c #263237",
"w  c #29363C",
"e  c #2B3439",
"r  c #333536",
"t  c #353738",
"y  c #36393A",
"u  c #3A3C3D",
"i  c #3C303E",
"p  c #440822",
"a  c #5E0C28",
"s  c #560B24",
"d  c #670D2C",
"f  c #7B0E3E",
"g  c #700E30",
"h  c #2D3B42",
"j  c #323E44",
"k  c #3C3F40",
"l  c #3E4142",
"z  c #34444B",
"x  c #3A4C55",
"c  c #3D4F58",
"v  c #3F525B",
"b  c #434547",
"n  c #484B4D",
"m  c #494E50",
"M  c #4E5153",
"N  c #41545E",
"B  c #55595B",
"V  c #585C5E",
"C  c #545759",
"Z  c #455A64",
"A  c #475A63",
"S  c #4C626D",
"D  c #5D6162",
"F  c #50626F",
"G  c #4F6671",
"H  c #516A76",
"J  c #546D79",
"K  c #5D6E7D",
"L  c #57717E",
"P  c #656A6C",
"I  c #636769",
"U  c #6A6F71",
"Y  c #6E7275",
"T  c #717678",
"R  c #767C7E",
"E  c #811137",
"W  c #95133F",
"Q  c #820F41",
"!  c #971340",
"~  c #A61547",
"^  c #B6184E",
"/  c #AD1457",
"(  c #B11557",
")  c #BD1851",
"_  c #BF175B",
"`  c #9D2358",
"'  c #BB3E70",
"]  c #BB386C",
"[  c #C31953",
"{  c #CC1A5B",
"}  c #C1175B",
"|  c #D31B59",
" . c #DC1C5D",
".. c #DA1B60",
"X. c #E51E62",
"o. c #E91E63",
"O. c #DE2666",
"+. c #DB2867",
"@. c #D32D69",
"#. c #D82A68",
"$. c #CB336C",
"%. c #C2396E",
"&. c #C5356D",
"*. c #E32265",
"=. c #8D5E7E",
"-. c #9C5479",
";. c #935A7C",
":. c #A54D77",
">. c #AA4A76",
",. c #A34F78",
"<. c #B44373",
"1. c #B84071",
"2. c #A25078",
"3. c #88617F",
"4. c #5B7583",
"5. c #5D7986",
"6. c #5F7C8A",
"7. c #6C6F83",
"8. c #7F6782",
"9. c #746D83",
"0. c #7A6C84",
"q. c #6A7486",
"w. c #607D8B",
"e. c #687889",
"r. c #647786",
"t. c #717286",
"y. c #7A7F81",
"u. c #846480",
"i. c #65818E",
"p. c #7D8285",
"a. c #79888E",
"s. c #6A8592",
"d. c #6E8895",
"f. c #718A96",
"g. c #7A939E",
"h. c #7D95A0",
"j. c #808688",
"k. c #858B8D",
"l. c #888E91",
"z. c #8C9295",
"x. c #90979A",
"c. c #949A9D",
"v. c #879DA8",
"b. c #859BA6",
"n. c #969DA0",
"m. c #999FA2",
"M. c #9BA2A5",
"N. c #9FA6A9",
"B. c #9AADB6",
"V. c #A0A7AA",
"C. c #A2A9AC",
"Z. c #A7AEB1",
"A. c #ABB2B5",
"S. c #A2B3BB",
"D. c #AEB6B9",
"F. c #B3BBBF",
"G. c #ACBBC2",
"H. c #B5BDC0",
"J. c #BAC2C5",
"K. c #BDC6CA",
"L. c #BDC9CF",
"P. c #B4C2C8",
"I. c #BFCBD1",
"U. c #C1C9CD",
"Y. c #C4CED2",
"T. c #C6D0D4",
"R. c #CAD2D6",
"E. c #CDD6DA",
"W. c #CFD8DC",
"Q. c None",
/* pixels */
"Q.Q.Q.Q.Q.Q.Q.Q.Q.Q.Q.Q.Q.Q.          Q.Q.Q.Q.Q.Q.Q.Q.Q.Q.Q.Q.Q.Q.Q.Q.Q.Q.Q.Q.Q.Q.Q.Q.Q.Q.          Q.Q.Q.Q.Q.Q.Q.Q.Q.Q.Q.Q.Q.Q.",
"Q.Q.Q.Q.Q.Q.Q.Q.Q.Q.Q.Q.                  Q.Q.Q.Q.Q.Q.Q.Q.Q.Q.Q.Q.Q.Q.Q.Q.Q.Q.Q.Q.Q.Q.                  Q.Q.Q.Q.Q.Q.Q.Q.Q.Q.Q.Q.",
"Q.Q.Q.Q.Q.Q.Q.Q.Q.Q.Q.    X w N G N w X     Q.Q.Q.Q.Q.Q.Q.Q.Q.Q.Q.Q.Q.Q.Q.Q.Q.Q.Q.Q.    X w N H A w X     Q.Q.Q.Q.Q.Q.Q.Q.Q.Q.Q.",
"Q.Q.Q.Q.Q.Q.Q.Q.Q.Q.    * H 3.<.$.<.u.J 2     Q.Q.Q.Q.Q.Q.Q.Q.Q.Q.Q.Q.Q.Q.Q.Q.Q.Q.    1 H 9.:.&.<.=.H =     Q.Q.Q.Q.Q.Q.Q.Q.Q.Q.",
"Q.Q.Q.Q.Q.Q.Q.Q.Q.Q.  O 4.<.{ W X.X.o.' 5.%     Q.Q.Q.Q.Q.Q.Q.Q.Q.Q.Q.Q.Q.Q.Q.Q.    O 4.>.X.f s s ^ 1.r.%     Q.Q.Q.Q.Q.Q.Q.Q.Q.",
"Q.Q.Q.Q.Q.Q.Q.Q.Q.    c -.) @   ! o.o.o.:.Z     Q.Q.Q.Q.Q.Q.Q.Q.Q.Q.Q.Q.Q.Q.Q.Q.    A =. .:          .>.v     Q.Q.Q.Q.Q.Q.Q.Q.Q.",
"Q.Q.Q.Q.Q.Q.Q.Q.Q.  X r.*.>   ;  .o.o.o.X.q.*   Q.Q.Q.Q.Q.Q.Q.Q.Q.Q.Q.Q.Q.Q.Q.Q.  * e.*.g   . d a d o.*.e.o   Q.Q.Q.Q.Q.Q.Q.Q.Q.",
"Q.Q.Q.Q.Q.Q.Q.Q.Q.  & q. .    [ o.o.o.o.o.2.x     Q.Q.Q.Q.Q.Q.Q.Q.Q.Q.Q.Q.Q.Q.    z ;.o.~ > ) o.o.o.o.o.0.=   Q.Q.Q.Q.Q.Q.Q.Q.Q.",
"Q.Q.Q.Q.Q.Q.Q.Q.Q.  1 9. .    [ o.o.o.o.o.#.4.X   Q.Q.Q.Q.Q.Q.Q.Q.Q.Q.Q.Q.Q.Q.    4.$.o.o.o.o.o.o.o.o.o.8.3   Q.Q.Q.Q.Q.Q.Q.Q.Q.",
"Q.Q.Q.Q.Q.Q.Q.Q.Q.  X 4.#.,   [ o.o.o.o.o.o.3.q     Q.Q.Q.Q.Q.Q.Q.Q.Q.Q.Q.Q.    8 u.o.~ | o.o.o.o.o.o.O.5.X   Q.Q.Q.Q.Q.Q.Q.Q.Q.",
"Q.Q.Q.Q.Q.Q.Q.Q.Q.    v ,. .[ o.o.o.o.o.o.o.] Z     Q.Q.Q.Q.Q.Q.Q.Q.Q.Q.Q.Q.    A 1.[   , X.o.o.o.o.o.>.N     Q.Q.Q.Q.Q.Q.Q.Q.Q.",
"Q.Q.Q.Q.Q.Q.Q.Q.Q.    * r.O.o.| | o.o.o.o.o.o.t.%   Q.Q.Q.Q.Q.Q.Q.Q.Q.Q.Q.Q.  $ q.*. .a ~ o.o.o.o.o.*.q.=     Q.Q.Q.Q.Q.Q.Q.Q.Q.",
"Q.Q.Q.Q.Q.Q.Q.Q.Q.Q.    x ;.o.# @ X.o.o.o.o.o.:.j     Q.Q.Q.Q.Q.Q.Q.Q.Q.Q.    h -.o.o.o.o.o.o.o.o.o.-.c     Q.Q.Q.Q.Q.Q.Q.Q.Q.Q.",
"Q.Q.Q.Q.Q.Q.Q.Q.Q.Q.Q.  o 4.@.d s o.o.o.o.o.o.+.J     Q.Q.Q.Q.Q.Q.Q.Q.Q.Q.    H #.o.o.o.o.o.o.o.o.#.4.O     Q.Q.Q.Q.Q.Q.Q.Q.Q.Q.",
"Q.Q.Q.Q.Q.Q.Q.Q.Q.Q.Q.    w 3.o.o.o.o.o.o.o.o.o.=.3     Q.Q.Q.Q.Q.Q.Q.Q.    2 u.o.o.o.o.o.o.o.o.*.;.w     Q.Q.Q.Q.Q.Q.Q.Q.Q.Q.Q.",
"Q.Q.Q.Q.Q.Q.Q.Q.Q.Q.Q.Q.    G %.o.o.o.o.o.o.o.o.%.v     Q.Q.Q.Q.Q.Q.Q.Q.    c ' o.o.o.o.o.o.o.o.$.J     Q.Q.Q.Q.Q.Q.Q.Q.Q.Q.Q.Q.",
"Q.Q.Q.Q.Q.Q.Q.Q.Q.Q.Q.Q.    3 0.*.o.o.o.o.o.o.o.o.7.X   Q.Q.Q.Q.Q.Q.Q.Q.  X 7.*.o.o.o.o.o.o.o.o.u.4     Q.Q.Q.Q.Q.Q.Q.Q.Q.Q.Q.Q.",
"Q.Q.Q.Q.Q.Q.Q.Q.Q.Q.Q.Q.Q.    N <.o.o.o.o.o.o.o.o.>.w     Q.Q.Q.Q.Q.Q.    q ,.o.o.o.o.o.o.o.o.' Z     Q.Q.Q.Q.Q.Q.Q.Q.Q.Q.Q.Q.Q.",
"Q.Q.Q.Q.Q.Q.Q.Q.Q.Q.Q.Q.Q.    % q.*.o.o.o.o.o.o.o.O.F     Q.Q.Q.Q.Q.Q.    S #.o.o.o.o.o.o.o.*.t.%     Q.Q.Q.Q.Q.Q.Q.Q.Q.Q.Q.Q.Q.",
"Q.Q.Q.Q.Q.Q.Q.Q.Q.Q.Q.Q.Q.Q.    j ,.o.o.o.o.o.o.o.o.;.*   Q.Q.Q.Q.Q.Q.  % 3.o.o.o.o.o.o.o.o.>.z     Q.Q.Q.Q.Q.Q.Q.Q.Q.Q.Q.Q.Q.Q.",
"Q.Q.Q.Q.Q.Q.Q.Q.Q.Q.Q.Q.Q.Q.Q.  X K O.o.o.o.o.o.o.o.&.j     Q.Q.Q.Q.    h ] o.o.o.o.o.o.o.O.K X   Q.Q.Q.Q.Q.Q.Q.Q.Q.Q.Q.Q.Q.Q.Q.",
"Q.Q.Q.Q.Q.Q.Q.Q.Q.Q.Q.Q.Q.Q.Q.    9 ;.o.o.o.o.o...} / i                 0 / _ ..o.o.o.o.o.-.q     Q.Q.Q.Q.Q.Q.Q.Q.Q.Q.Q.Q.Q.Q.Q.",
"Q.Q.Q.Q.Q.Q.Q.Q.Q.Q.Q.Q.Q.Q.Q.Q.    S $.o.o...( f p @                     . p f / ..o.o.@.F     Q.Q.Q.Q.Q.Q.Q.Q.Q.Q.Q.Q.Q.Q.Q.Q.",
"Q.Q.Q.Q.Q.Q.Q.Q.Q.Q.Q.Q.Q.Q.Q.Q.    = u.o.{ Q #       & u M I Y Y P m 7 O       @ f { o.3.1     Q.Q.Q.Q.Q.Q.Q.Q.Q.Q.Q.Q.Q.Q.Q.Q.",
"Q.Q.Q.Q.Q.Q.Q.Q.Q.Q.Q.Q.Q.Q.Q.Q.Q.    x ` p     O D N.E.W.W.W.W.W.W.W.W.E.a.h O     < ` c     Q.Q.Q.Q.Q.Q.Q.Q.Q.Q.Q.Q.Q.Q.Q.Q.Q.",
"Q.Q.Q.Q.Q.Q.Q.Q.Q.Q.Q.Q.Q.Q.Q.Q.Q.Q.  X +   X D U.W.W.W.W.W.W.W.W.W.W.W.W.W.T.f.h X   X X     Q.Q.Q.Q.Q.Q.Q.Q.Q.Q.Q.Q.Q.Q.Q.Q.Q.",
"Q.Q.Q.Q.Q.Q.Q.Q.Q.Q.Q.Q.Q.Q.Q.Q.Q.Q.      - A.W.W.W.W.W.W.W.W.W.W.W.W.W.W.W.W.E.v.J %       Q.Q.Q.Q.Q.Q.Q.Q.Q.Q.Q.Q.Q.Q.Q.Q.Q.Q.",
"Q.Q.Q.Q.Q.Q.Q.Q.Q.Q.Q.Q.Q.Q.Q.Q.Q.Q.    r U.E.W.W.W.W.W.W.W.W.W.W.W.W.W.W.W.W.W.W.v.4.4     Q.Q.Q.Q.Q.Q.Q.Q.Q.Q.Q.Q.Q.Q.Q.Q.Q.Q.",
"Q.Q.Q.Q.Q.Q.Q.Q.Q.Q.Q.Q.Q.Q.Q.Q.Q.    6 T.W.W.W.W.T.F.W.W.W.W.W.W.W.W.W.W.F.Y.W.W.E.g.5.1     Q.Q.Q.Q.Q.Q.Q.Q.Q.Q.Q.Q.Q.Q.Q.Q.Q.",
"Q.Q.Q.Q.Q.Q.Q.Q.Q.Q.Q.Q.Q.Q.Q.Q.    O H.W.W.V.C &     V W.W.W.W.W.W.W.W.P     & M M.Y.w.L O     Q.Q.Q.Q.Q.Q.Q.Q.Q.Q.Q.Q.Q.Q.Q.Q.",
"Q.Q.Q.Q.Q.Q.Q.Q.Q.Q.Q.Q.Q.Q.Q.Q.    k.W.W.n.        o p.W.W.W.W.W.W.W.W.l.O         P B.6.Z     Q.Q.Q.Q.Q.Q.Q.Q.Q.Q.Q.Q.Q.Q.Q.Q.",
"Q.Q.Q.Q.Q.Q.Q.Q.Q.Q.Q.Q.Q.Q.Q.    7 E.W.W.N.- y Y V.R.W.W.W.W.W.W.W.W.W.W.E.C.Y k * p.E.f.6.3     Q.Q.Q.Q.Q.Q.Q.Q.Q.Q.Q.Q.Q.Q.Q.",
"Q.Q.Q.Q.Q.Q.Q.Q.Q.Q.Q.Q.Q.Q.Q.    c.W.W.W.W.W.W.W.W.W.W.W.W.W.W.W.W.W.W.W.W.W.W.W.W.W.W.B.w.S     Q.Q.Q.Q.Q.Q.Q.Q.Q.Q.Q.Q.Q.Q.Q.",
"Q.Q.Q.Q.Q.Q.Q.Q.Q.Q.Q.Q.Q.Q.Q.  & E.W.W.W.W.W.W.W.W.W.W.W.W.W.W.W.W.W.E.W.W.W.W.W.W.W.W.T.w.6.%   Q.Q.Q.Q.Q.Q.Q.Q.Q.Q.Q.Q.Q.Q.Q.",
"Q.Q.Q.Q.Q.Q.Q.Q.Q.Q.Q.Q.Q.Q.    m W.W.W.W.W.C.y z.W.D.u j.W.W.W.W.W.W.z.y A.W.m.r N.W.W.W.g.6.w     Q.Q.Q.Q.Q.Q.Q.Q.Q.Q.Q.Q.Q.Q.",
"Q.Q.Q.Q.Q.Q.Q.Q.Q.Q.Q.Q.Q.Q.    l.W.W.W.W.W.R     T &   b W.W.W.W.W.W.M   O T X   Y W.W.W.B.6.Z     Q.Q.Q.Q.Q.Q.Q.Q.Q.Q.Q.Q.Q.Q.",
"Q.Q.Q.Q.Q.Q.Q.Q.Q.Q.Q.Q.Q.Q.    V.W.W.W.W.W.E.l       - J.W.W.W.W.W.E.K.6       y T.W.W.W.D.w.H     Q.Q.Q.Q.Q.Q.Q.Q.Q.Q.Q.Q.Q.Q.",
"Q.Q.Q.Q.Q.Q.Q.Q.Q.Q.Q.Q.Q.Q.    F.W.W.W.W.W.E.D.X     p.W.W.W.W.W.W.W.W.l.      C.W.W.W.W.L.w.4.    Q.Q.Q.Q.Q.Q.Q.Q.Q.Q.Q.Q.Q.Q.",
"Q.Q.Q.Q.Q.Q.Q.Q.Q.Q.Q.Q.Q.Q.    Y.W.W.W.W.W.H.-   X   X x.W.W.W.W.W.W.M.X   X   & D.W.W.W.T.w.w.    Q.Q.Q.Q.Q.Q.Q.Q.Q.Q.Q.Q.Q.Q.",
"Q.Q.Q.Q.Q.Q.Q.Q.Q.Q.Q.Q.Q.    r W.W.W.W.W.W.R   - F.l   u W.W.W.W.W.W.b   y H.6   I W.W.W.T.w.w.8     Q.Q.Q.Q.Q.Q.Q.Q.Q.Q.Q.Q.Q.",
"Q.Q.Q.Q.Q.Q.Q.Q.Q.Q.Q.      u K.W.W.W.W.W.W.T.j.K.W.R.p.D.W.W.W.W.W.W.D.R R.W.U.R K.W.W.W.W.S.w.4.3     Q.Q.Q.Q.Q.Q.Q.Q.Q.Q.Q.Q.",
"Q.Q.Q.Q.Q.Q.Q.Q.Q.Q.Q.    P E.W.W.W.W.W.W.W.W.W.W.W.W.W.W.W.W.W.W.W.W.W.W.W.W.W.W.W.W.W.W.W.W.P.s.6.w     Q.Q.Q.Q.Q.Q.Q.Q.Q.Q.Q.",
"Q.Q.Q.Q.Q.Q.Q.Q.Q.Q.    D W.W.W.W.W.W.W.W.W.W.W.W.W.W.W.W.W.W.W.W.W.W.W.W.W.W.W.W.W.W.W.W.W.W.W.K.i.w.z     Q.Q.Q.Q.Q.Q.Q.Q.Q.Q.",
"Q.Q.Q.Q.Q.Q.Q.Q.Q.    r E.E.W.W.W.W.W.W.W.W.W.W.W.W.W.W.W.J.K.E.W.U.H.W.W.W.W.W.W.W.W.W.W.W.W.W.W.S.w.6.=     Q.Q.Q.Q.Q.Q.Q.Q.Q.",
"Q.Q.Q.Q.Q.Q.Q.Q.Q.    H.W.W.W.W.W.W.W.W.W.W.W.W.W.W.W.W.U.+ + B D o + J.W.W.W.W.W.W.W.W.W.W.W.W.W.W.v.6.G     Q.Q.Q.Q.Q.Q.Q.Q.Q.",
"Q.Q.Q.Q.Q.Q.Q.Q.    b W.W.W.W.W.W.W.W.W.W.W.W.W.W.W.W.W.R.u         7 T.W.W.W.W.W.W.W.W.W.W.W.W.W.W.I.6.6.e     Q.Q.Q.Q.Q.Q.Q.Q.",
"Q.Q.Q.Q.Q.Q.Q.Q.    m.W.W.W.W.W.W.W.W.W.W.W.W.W.W.W.W.W.W.W.x.    j.W.W.W.W.W.W.W.W.W.W.W.W.W.W.W.W.W.h.w.Z     Q.Q.Q.Q.Q.Q.Q.Q.",
"Q.Q.Q.Q.Q.Q.Q.Q.  + W.W.W.W.W.W.W.W.W.W.W.W.W.W.W.W.W.W.E.c.M     n x.R.W.W.W.W.W.W.W.W.W.W.W.W.W.W.W.G.w.5.    Q.Q.Q.Q.Q.Q.Q.Q.",
"Q.Q.Q.Q.Q.Q.Q.Q.  6 W.W.W.W.W.W.W.W.W.W.W.W.W.W.W.W.W.Y.6             - K.W.W.W.W.W.W.W.W.W.W.W.W.W.W.R.w.w.1   Q.Q.Q.Q.Q.Q.Q.Q.",
"Q.Q.Q.Q.Q.Q.Q.Q.  k W.W.W.W.W.W.W.W.W.W.W.W.W.W.W.W.W.Y.% O m x.c.M O o F.W.W.W.W.W.W.W.W.W.W.W.W.W.W.W.s.6.9     Q.Q.Q.Q.Q.Q.Q.",
"Q.Q.Q.Q.Q.Q.Q.Q.  u W.W.W.W.W.W.W.W.W.W.W.W.W.W.W.W.W.W.E.R.W.W.W.W.E.Y.W.W.W.W.W.W.W.W.W.W.W.W.W.W.W.W.h.6.4   Q.Q.Q.Q.Q.Q.Q.Q.",
"Q.Q.Q.Q.Q.Q.Q.Q.  & W.W.W.W.W.W.W.W.W.W.W.W.W.W.W.W.W.W.W.W.W.W.W.W.W.W.W.W.W.W.W.W.W.W.W.W.W.W.W.W.W.W.s.w.=   Q.Q.Q.Q.Q.Q.Q.Q.",
"Q.Q.Q.Q.Q.Q.Q.Q.    J.W.W.W.W.W.W.W.W.W.W.W.W.W.W.W.W.W.W.W.W.W.W.W.W.W.W.W.W.W.W.W.W.W.W.W.W.W.W.W.W.L.6.6.%   Q.Q.Q.Q.Q.Q.Q.Q.",
"Q.Q.Q.Q.Q.Q.Q.Q.    z.W.W.W.W.W.W.W.W.W.W.W.W.W.W.W.W.W.W.W.W.W.W.W.W.W.W.W.W.W.W.W.W.W.W.W.W.W.W.W.W.S.6.L     Q.Q.Q.Q.Q.Q.Q.Q.",
"Q.Q.Q.Q.Q.Q.Q.Q.    B W.W.W.W.W.W.W.W.W.W.W.W.W.W.W.W.W.W.W.W.W.W.W.W.W.W.W.W.W.W.W.W.W.W.W.W.W.W.W.W.v.6.w     Q.Q.Q.Q.Q.Q.Q.Q.",
"Q.Q.Q.Q.Q.Q.Q.Q.Q.    C.W.W.W.W.W.W.W.W.W.W.W.W.W.W.W.W.W.W.W.W.W.W.W.W.W.W.W.W.W.W.W.W.W.W.W.W.W.W.I.i.4.X   Q.Q.Q.Q.Q.Q.Q.Q.Q.",
"Q.Q.Q.Q.Q.Q.Q.Q.Q.    2 T.W.W.W.W.W.W.W.W.W.W.W.W.W.W.W.W.W.W.V.M.W.W.W.W.W.W.W.W.W.W.W.W.W.W.W.W.W.h.6.h     Q.Q.Q.Q.Q.Q.Q.Q.Q.",
"Q.Q.Q.Q.Q.Q.Q.Q.Q.Q.    V W.W.W.W.W.W.W.W.W.W.W.W.W.W.W.W.W.E.O + Y.W.W.W.W.W.W.W.W.W.W.W.W.W.W.W.S.6.v     Q.Q.Q.Q.Q.Q.Q.Q.Q.Q.",
"Q.Q.Q.Q.Q.Q.Q.Q.Q.Q.Q.    Y R.W.W.W.W.W.W.W.W.W.W.W.W.W.W.W.Y.    J.E.W.W.W.W.W.W.W.W.W.W.W.W.E.I.i.A       Q.Q.Q.Q.Q.Q.Q.Q.Q.Q.",
"Q.Q.Q.Q.Q.Q.Q.Q.Q.Q.Q.      7 D.W.W.W.W.W.W.W.W.W.W.W.W.W.W.Z.    M.W.W.W.W.W.W.W.W.W.W.W.W.W.Y.f.c X     Q.Q.Q.Q.Q.Q.Q.Q.Q.Q.Q.",
"Q.Q.Q.Q.Q.Q.Q.Q.Q.Q.Q.Q.Q.    + T R.W.W.W.W.W.W.W.W.W.W.W.W.b     y E.W.W.W.W.W.W.W.W.E.W.W.P.Z *       Q.Q.Q.Q.Q.Q.Q.Q.Q.Q.Q.Q.",
"Q.Q.Q.Q.Q.Q.Q.Q.Q.Q.Q.Q.Q.Q.      X 7 B j.A.F.H.F.H.H.H.n.k         t c.F.F.H.H.F.H.F.M.T j *       Q.Q.Q.Q.Q.Q.Q.Q.Q.Q.Q.Q.Q.Q.",
"Q.Q.Q.Q.Q.Q.Q.Q.Q.Q.Q.Q.Q.Q.Q.Q.                                                                  Q.Q.Q.Q.Q.Q.Q.Q.Q.Q.Q.Q.Q.Q.Q.",
"Q.Q.Q.Q.Q.Q.Q.Q.Q.Q.Q.Q.Q.Q.Q.Q.Q.Q.                                                        Q.Q.Q.Q.Q.Q.Q.Q.Q.Q.Q.Q.Q.Q.Q.Q.Q.Q."
};
