/* XPM */
static char *result[] = {
/* columns rows colors chars-per-pixel */
"64 64 124 2 ",
"   c #000000",
".  c #0A0302",
"X  c #050904",
"o  c #090D05",
"O  c #010B09",
"+  c #080D09",
"@  c #110404",
"#  c #1D0706",
"$  c #0C1307",
"%  c #00110F",
"&  c #0E1608",
"*  c #0F1909",
"=  c #101608",
"-  c #131D0A",
";  c #001412",
":  c #0D1610",
">  c #001916",
",  c #001E1B",
"<  c #200707",
"1  c #200807",
"2  c #340B0B",
"3  c #16230C",
"4  c #1A250E",
"5  c #1B2B0F",
"6  c #00231E",
"7  c #1D2C10",
"8  c #17271B",
"9  c #1A2C1E",
"0  c #1F3212",
"q  c #212E11",
"w  c #223313",
"e  c #253C15",
"r  c #2A3A16",
"t  c #002522",
"y  c #002A25",
"u  c #002F2A",
"i  c #00312C",
"p  c #003732",
"a  c #003B33",
"s  c #233C2A",
"d  c #5B1713",
"f  c #5B1914",
"g  c #751A18",
"h  c #294217",
"j  c #2D4519",
"k  c #2E4B1A",
"l  c #32461A",
"z  c #354A1C",
"x  c #384E1E",
"c  c #34551D",
"v  c #39501E",
"b  c #375A1F",
"n  c #00443C",
"m  c #25402C",
"M  c #3D5520",
"N  c #3A5C20",
"B  c #2D4D35",
"V  c #34583D",
"C  c #3D6322",
"Z  c #425D23",
"A  c #456125",
"S  c #486627",
"D  c #426D26",
"F  c #4C6B29",
"G  c #457127",
"H  c #477428",
"J  c #497729",
"K  c #4C7C2B",
"L  c #53742C",
"P  c #57792E",
"I  c #597D2F",
"U  c #597D30",
"Y  c #004741",
"T  c #004B42",
"R  c #005147",
"E  c #00554B",
"W  c #005A4E",
"Q  c #005C51",
"!  c #375E41",
"~  c #006155",
"^  c #006459",
"/  c #00695C",
"(  c #396143",
")  c #006E61",
"_  c #007265",
"`  c #007669",
"'  c #007B6E",
"]  c #007E73",
"[  c #911F1E",
"{  c #94231F",
"}  c #992821",
"|  c #A02020",
" . c #AF3026",
".. c #C52828",
"X. c #CC2C2A",
"o. c #E43A31",
"O. c #EE4134",
"+. c #F44335",
"@. c #4F812D",
"#. c #51852E",
"$. c #53882F",
"%. c #5D8232",
"&. c #558B30",
"*. c #608733",
"=. c #648C35",
"-. c #679137",
";. c #699338",
":. c #6D993A",
">. c #719E3C",
",. c #74A23E",
"<. c #008275",
"1. c #008679",
"2. c #008A7D",
"3. c #7AAB41",
"4. c #7EB143",
"5. c #81B545",
"6. c #84B946",
"7. c #87BE48",
"8. c #88BF49",
"9. c #8BC34A",
"0. c #008E81",
"q. c #009385",
"w. c #009688",
"e. c None",
/* pixels */
"e.e.e.e.e.e.e.e.e.e.e.e.e.e.e.e.e.e.e.e.e.e.e.e.e.e.e.e.e.e.e.e.e.e.e.e.e.e.e.e.e.e.e.e.e.e.e.    e.e.e.e.e.e.e.e.e.e.e.e.    e.",
"e.e.e.e.e.e.e.e.e.e.e.e.e.e.e.e.e.e.e.e.e.e.e.e.e.e.e.e.e.e.e.e.e.e.e.e.e.e.e.e.e.e.e.e.e.e.e.    e.e.e.e.e.e.e.e.e.e.e.e.      ",
"e.e.e.e.e.e.e.e.e.e.e.e.e.e.e.e.e.e.e.e.e.e.e.e.e.e.e.e.e.e.e.e.e.e.e.e.e.e.e.e.e.e.e.e.e.            e.e.e.e.e.e.e.e.e.        ",
"e.e.e.e.e.e.e.e.e.e.e.e.e.e.e.e.e.e.e.e.e.e.e.e.e.e.e.e.e.e.e.e.e.e.e.e.e.e.e.e.e.e.e.e.e.            e.e.e.e.e.e.e.e.        e.",
"e.e.e.e.e.e.e.e.e.e.e.e.e.e.e.e.e.e.e.e.e.e.e.e.e.e.e.e.e.e.e.e.e.e.e.e.e.e.e.e.e.e.e.e.e.e.e.    e.e.e.e.e.e.e.e.e.    O     e.",
"e.e.e.e.e.e.e.e.e.e.e.e.e.e.e.e.e.e.e.e.e.e.e.e.e.e.e.e.e.e.e.e.e.e.e.e.e.e.e.e.e.e.e.e.e.e.e.    e.e.e.e.e.e.e.e.e.    u     e.",
"e.e.e.e.e.e.e.e.e.e.e.e.e.    e.e.e.e.e.e.e.e.e.e.e.e.e.e.e.e.e.e.e.e.e.e.e.e.e.e.e.e.e.e.e.e.e.e.e.e.e.e.e.e.e.e.    p ,     e.",
"e.e.e.e.e.e.e.e.                      e.e.e.e.e.e.e.e.e.e.e.e.e.e.e.e.e.e.e.e.e.e.e.e.e.e.e.e.e.e.e.e.e.e.e.e.e.    6 W     e.e.",
"e.e.e.e.e.e.                  4         e.e.e.e.e.e.e.e.                    e.e.e.e.e.e.e.e.e.e.e.e.e.e.e.e.e.    ; ~ u     e.e.",
"e.e.e.e.e.      + X     -     F 5.I w       e.e.e.e.e.              4 X         e.e.e.e.e.e.e.e.e.e.e.e.e.e.    O W W O   e.e.e.",
"e.e.e.e.    X B ( ! :   w c   X 3.9.9.z       e.e.e.e.              $ =.,.x       e.e.e.e.e.e.e.e.e.e.e.e.    O E / >     e.e.e.",
"e.e.e.e.    B ( ( ( s   3 &.3   w 9.9.9.Z     e.e.e.e.e.e.e.    X $     M 9.,.=     e.e.e.e.e.e.e.e.e.e.    O E / a     e.e.e.e.",
"e.e.e.    9 ( ( ( V 9   5 &.H     =.9.9.9.l     e.e.e.e.e.e.e.    J e     P 9.,.o   e.e.e.e.e.e.e.e.e.    O Q / E O   e.e.e.e.e.",
"e.e.e.    m B 8 $       j &.&.w   Z 9.9.9.,.    e.e.e.e.e.e.e.    K $.k   o 5.9.A     e.e.e.e.e.e.e.    O ^ / ^ >     e.e.e.e.e.",
"e.e.e.    +             @.&.&.b   4 9.9.9.9.l     e.e.e.e.e.e.  X $.&.$.&   I 9.>.    e.e.e.e.e.e.    O / / / i     e.e.e.e.e.e.",
"e.e.e.                j $.&.$.K     6.9.9.9.=.    e.e.e.e.e.e.  - $.&.&.e   z 9.P     e.e.e.e.e.    % _ / / a     e.e.e.e.e.e.e.",
"e.e.e.e.e.e.e.e.    3 $.&.&.&.&.o   *.9.9.9.6.    e.e.e.e.e.    0 &.&.&.j     o       e.e.e.e.    , 1.) / Y       e.e.e.e.e.e.e.",
"e.e.e.e.e.e.e.    X J &.&.&.&.&.5   F 9.9.9.9.3   e.e.e.e.e.e.  $ K &.C             e.e.e.      i 0._ / E       e.e.e.e.e.e.e.e.",
"e.e.e.e.e.e.e.    N &.&.&.&.&.&.w   F 9.9.9.9.l   e.e.e.e.e.e.      X           e.e.e.e.      Y q.` / W O     e.e.e.e.e.e.e.e.e.",
"e.e.e.e.e.e.    w &.&.&.&.&.&.&.0   S 9.9.9.9.l     e.e.e.e.e.e.          e.      e.e.    O Q q.` / W O     e.e.e.e.e.e.e.e.e.e.",
"e.e.e.e.e.    & #.&.&.&.&.&.&.&.w   A 9.9.9.9.z     e.e.e.e.e.e.e.e.e.e.e.e.e.          , ] q._ / E O     e.e.e.e.e.e.e.e.e.e.e.",
"e.e.e.e.e.    C &.&.&.&.&.&.&.&.w   Z 9.9.9.9.z     e.e.e.e.e.e.e.e.e.e.e.e.e.        n q.q._ / E O     e.e.e.e.e.e.e.e.e.e.e.e.",
"e.e.e.e.e.  = &.&.&.&.&.&.&.&.&.5   F 9.9.9.9.r   e.e.e.e.e.e.e.e.e.e.e.e.e.      % _ w.q._ / T O     e.e.e.e.e.e.e.e.e.e.e.e.e.",
"e.e.e.e.    e &.&.&.&.&.&.&.&.&.X   :.9.9.9.9.$   e.e.e.e.e.e.e.e.e.e.e.e.      i 0.w.0._ / T O     e.e.e.e.e.e.e.e.e.e.e.e.e.e.",
"e.e.e.e.    k &.&.&.&.&.&.&.&.D     9.9.9.9.3.    e.e.e.e.e.e.e.e.e.e.      O ^ w.w.2./ / a       e.e.e.e.e.e.e.e.e.e.e.e.e.e.e.",
"e.e.e.e.    e &.&.&.&.&.&.&.&.k   q 9.9.9.9.U     e.e.e.e.e.e.e.e.      O Y q.w.w.<./ ^ 6         e.e.e.                e.e.e.e.",
"e.e.e.e.e.  = &.&.&.&.&.$.#.h X   w 6.9.9.7.-     e.e.e.e.e.e.e.      i <.w.w.w.' / Q ;             e.      $ q r $       e.e.e.",
"e.e.e.e.e.    c &.&.&.&.D $         o Z F 5     e.e.e.e.e.e.      > _ w.w.w.q.` / Y O     e.e.e.          %.9.9.9.9.%.X   e.e.e.",
"e.e.e.e.e.e.    h C c 0                       e.e.e.e.e.      O Q q.w.w.w.2.) / p       e.e.e.e.            $ r F 3.9.P     e.e.",
"e.e.e.e.e.e.                e.    e.e.      e.e.e.e.        n 0.w.w.w.w.] / ^ t       e.e.e.e.      - 3 = X       X L 9.=     e.",
"e.e.e.e.e.e.e.e.        e.e.e.    e.e.e.e.e.e.e.        y ] w.w.w.w.q.` ^ W ;       e.e.e.e.    $ D &.&.&.&.@.c $     r A     e.",
"e.e.e.e.e.e.e.e.e.e.e.e.e.e.      e.e.e.e.e.        p ' w.w.w.w.w.1.) / T O     e.e.e.e.e.e.    N &.&.&.&.&.$.&.$.b o   o     e.",
"e.e.    e.e.e.e.e.e.e.e.e.e.    e.e.e.        O n <.w.w.w.w.w.w.] / / i       e.e.e.e.e.e.e.    K $.&.&.&.C k h C #.J &       e.",
"e.e.    e.e.e.e.e.e.e.e.e.e.    e.        ; W 2.w.w.w.w.w.w.q.` / W ;       e.e.e.e.e.e.e.e.    z $.$.b &           5 D         ",
"            e.e.e.e.e.e.e.            , ^ q.w.w.w.w.w.w.w.<./ / a       e.e.e.e.e.e.e.e.e.e.e.    - $                 $ 3       ",
"            e.e.e.e.e.e.e.        u ` w.w.w.w.w.w.w.w.w.' / Q 6       e.e.e.e.e.e.e.e.e.e.e.e.            e.e.e.e.e.            ",
"e.e.    e.e.e.e.e.e.e.      O p ] w.w.w.w.w.w.w.w.w.2._ ^ Y O     e.e.e.e.e.e.e.e.e.e.e.e.e.e.e.e.e.e.e.e.e.e.e.e.e.e.          ",
"e.e.    e.e.e.e.e.        a <.q.w.w.w.w.w.w.w.w.w.<./ ^ u       e.e.e.e.e.e.      e.e.e.e.e.e.e.e.e.e.e.e.e.e.e.e.e.e.e.        ",
"e.e.e.e.e.e.e.e.      t <.w.w.w.w.w.w.w.w.w.w.q.` / E %       e.e.e.                        e.e.e.e.e.e.e.e.e.e.e.e.e.e.e.e.e.e.",
"e.e.e.e.e.e.e.      E w.w.w.w.w.w.w.w.w.w.w.<./ / p       e.e.          q v Z A v l q -           e.e.e.e.e.e.e.e.e.e.e.e.e.e.e.",
"e.e.e.e.e.e.    > ] w.w.w.w.w.w.w.w.w.w.q.' / W >       e.e.      4 %.6.9.9.9.9.9.9.9.9.,.F w         e.e.e.e.e.e.e.e.e.e.e.e.e.",
"e.e.e.e.e.    6 2.w.w.w.w.w.w.w.w.w.w.2./ / n O     e.e.e.      M 7.9.9.9.9.,.L L L :.9.9.9.9.,.r       e.e.e.e.e.e.e.e.e.e.e.e.",
"e.e.e.e.    t 0.w.w.w.w.w.w.w.w.w.w.' / ~ 6       e.e.e.e.    U 9.9.9.9.9.%.          L 9.9.9.9.9.=.4     e.e.e.e.e.e.e.e.e.e.e.",
"e.e.e.    y q.w.w.w.w.w.w.w.w.w.w.` / W O           e.e.    r 9.9.9.9.9.9.l   1 2 1   w 9.9.9.9.9.9.6.r     e.e.e.e.e.e.e.e.e.e.",
"e.e.    > 0.q.w.w.w.w.w.w.w.w.q._ / E O               e.    %.9.9.9.9.5.:.w   g X.g   4 :.3.9.9.9.9.9.9.Z     e.e.e.e.e.e.e.e.e.",
"e.    O ] w.w.w.w.w.w.w.w.w.q._ / E O     e.e.e.e.          N v l w 4         } X.[         F 9.9.9.9.9.9.Z     e.e.e.e.e.e.e.e.",
"e.    ^ w.w.w.w.w.w.w.w.w.2._ / T O     e.e.e.e.e.e.                    . @ f +.+.+.d @ .   = 9.9.9.9.9.9.9.z     e.e.e.e.e.e.e.",
"    t w.w.w.w.w.w.w.w.w.q._ / Y       e.e.e.e.e.e.        $ 3 0 h c o    .+.+.+.+.+.o...|   X ;.9.9.9.9.9.9.7.w     e.e.e.e.e.e.",
"    E w.w.w.w.w.w.w.w.w.` / W O     e.e.e.e.e.e.    X e @.$.$.&.&.&.$    .+.+.+.+.+.o...|       4 U 9.9.9.9.9.3.X   e.e.e.e.e.e.",
"    ' w.w.w.w.w.w.w.w.] / ^ ;     e.e.e.e.e.e.    $ J $.&.&.&.&.&.&.*   . @ f O.+.+.d @ .   X       & %.9.9.9.9.L     e.e.e.e.e.",
"    ] w.w.w.w.w.w.w.2./ / y     e.e.e.e.e.e.e.  X K $.&.&.&.&.&.&.&.b         { X.[         k K e X     r 3.9.9.9.w     e.e.e.e.",
"    ] w.w.w.w.w.w.q./ / n     e.e.e.e.e.e.e.    z &.&.&.&.&.&.&.&.&.$.@.G 5   g ..g   - G @.&.&.$.@.e     X F 9.9.=.    e.e.e.e.",
"    ] w.w.w.w.w.w.` / W       e.e.e.e.e.e.e.    $.$.&.&.&.&.&.&.&.&.&.&.&.0   # 2 #   3 &.&.&.&.&.&.&.G *     z 7.9.4     e.e.e.",
"    ] w.w.w.w.w.1./ / >     e.e.e.e.e.e.e.e.  3 &.&.&.&.&.&.&.&.&.&.&.&.&.C           c &.&.&.&.&.&.&.&.$.e     q 3.%.    e.e.e.",
"    ] w.w.w.w.w._ / n     e.e.e.e.e.e.e.e.    w &.&.&.&.&.&.&.&.&.&.&.&.&.&.J b c b G &.&.&.&.&.&.&.&.&.&.&.C X   - 3.-     e.e.",
"    ] w.w.w.w.<./ ~ O     e.e.e.e.e.e.e.e.    h &.&.&.&.&.&.&.&.&.&.&.&.&.&.$.&.&.&.$.$.C c j k N D K &.&.&.&.D X   4 S     e.e.",
"    ] w.w.w.w.) / i     e.e.e.e.e.e.e.e.e.e.  7 &.&.&.&.&.&.&.&.&.&.&.&.&.&.&.&.$.J w X               * k J &.&.G o   4 X   e.e.",
"    ] w.w.w.] / Q       e.e.e.e.e.e.e.e.e.e.  & &.&.&.&.&.&.&.&.&.&.&.&.&.&.&.$.k X                         3 G $.J X         e.",
"    ] w.w.q./ / y     e.e.e.    e.e.e.e.e.e.    #.&.&.&.&.&.&.&.&.&.&.&.&.&.D *       e.e.e.e.e.e.e.e.e.        w @.N         e.",
"    ] w.w.' / Q     e.e.e.e.    e.e.e.e.e.e.    e &.&.&.&.&.&.&.&.&.&.&.$.h       e.e.e.e.e.e.e.e.e.e.e.e.e.      X k h       e.",
"    ] w.0./ / y     e.e.            e.e.e.e.e.    c &.&.&.&.&.$.&.&.@.k o       e.e.e.e.e.e.e.e.e.e.e.e.e.e.e.e.      &         ",
"    ^ _ Q W a     e.e.e.            e.e.e.e.e.      3 N G G D C j 5         e.e.e.e.e.e.e.e.e.e.e.e.e.e.e.e.e.e.e.e.            ",
"                  e.e.e.e.e.    e.e.e.e.e.e.e.e.                        e.e.e.e.e.e.e.e.e.e.e.e.e.e.e.e.e.e.e.e.e.e.e.          ",
"                e.e.e.e.e.e.    e.e.e.e.e.e.e.e.e.e.              e.e.e.e.e.e.e.e.e.e.e.e.e.e.e.e.e.e.e.e.e.e.e.e.e.e.e.e.    e."
};
