/* XPM */
static char *_a3f8308ee1d4a47805ef098ecb459abuyAyIFJbFpWa3J7q[] = {
/* columns rows colors chars-per-pixel */
"64 64 147 2 ",
"   c None",
".  c #000100",
"X  c #0A0302",
"o  c #050904",
"O  c #090D05",
"+  c #010B09",
"@  c #0A0B0A",
"#  c #110404",
"$  c #1D0706",
"%  c #0C1307",
"&  c #00110F",
"*  c #0E1608",
"=  c #0F1909",
"-  c #101608",
";  c #131D0A",
":  c #001412",
">  c #0D1610",
",  c #001916",
"<  c #001E1B",
"1  c #131313",
"2  c #1C1C1C",
"3  c #200707",
"4  c #200807",
"5  c #340B0B",
"6  c #16230C",
"7  c #1A250E",
"8  c #1B2B0F",
"9  c #00231E",
"0  c #1D2C10",
"q  c #17271B",
"w  c #1A2C1E",
"e  c #1F3212",
"r  c #212E11",
"t  c #223313",
"y  c #253C15",
"u  c #2A3A16",
"i  c #002522",
"p  c #002A25",
"a  c #002F2A",
"s  c #00312C",
"d  c #003732",
"f  c #003B33",
"g  c #242424",
"h  c #2C2C2C",
"j  c #233C2A",
"k  c #343434",
"l  c #3B3B3B",
"z  c #5B1713",
"x  c #5B1914",
"c  c #751A18",
"v  c #294217",
"b  c #2D4519",
"n  c #2E4B1A",
"m  c #32461A",
"M  c #354A1C",
"N  c #384E1E",
"B  c #34551D",
"V  c #39501E",
"C  c #375A1F",
"Z  c #00443C",
"A  c #25402C",
"S  c #3D5520",
"D  c #3A5C20",
"F  c #2D4D35",
"G  c #34583D",
"H  c #3D6322",
"J  c #425D23",
"K  c #456125",
"L  c #486627",
"P  c #426D26",
"I  c #4C6B29",
"U  c #457127",
"Y  c #477428",
"T  c #497729",
"R  c #4C7C2B",
"E  c #53742C",
"W  c #57792E",
"Q  c #597D2F",
"!  c #597D30",
"~  c #004741",
"^  c #004B42",
"/  c #005147",
"(  c #00554B",
")  c #005A4E",
"_  c #005C51",
"`  c #375E41",
"'  c #006155",
"]  c #006459",
"[  c #00695C",
"{  c #396143",
"}  c #006E61",
"|  c #007265",
" . c #007669",
".. c #007B6E",
"X. c #007E73",
"o. c #434343",
"O. c #4B4B4B",
"+. c #555555",
"@. c #5B5B5B",
"#. c #636363",
"$. c #6B6B6B",
"%. c gray45",
"&. c #7C7C7C",
"*. c #911F1E",
"=. c #94231F",
"-. c #992821",
";. c #A02020",
":. c #AF3026",
">. c #C52828",
",. c #CC2C2A",
"<. c #E43A31",
"1. c #EE4134",
"2. c #F44335",
"3. c #4F812D",
"4. c #51852E",
"5. c #53882F",
"6. c #5D8232",
"7. c #558B30",
"8. c #608733",
"9. c #648C35",
"0. c #679137",
"q. c #699338",
"w. c #6D993A",
"e. c #719E3C",
"r. c #73A13D",
"t. c #74A33E",
"y. c #008275",
"u. c #008679",
"i. c #008A7D",
"p. c #79AA40",
"a. c #7AAC41",
"s. c #7EB143",
"d. c #82B645",
"f. c #80B344",
"g. c #84B946",
"h. c #87BE48",
"j. c #88BF49",
"k. c #8BC34A",
"l. c #8AC24A",
"z. c #89C149",
"x. c #8BC34A",
"c. c #008F81",
"v. c #008E81",
"b. c #009385",
"n. c #009385",
"m. c #009688",
"M. c #009688",
/* pixels */
"                                                                                              o.o.                        $.2   ",
"                                                                                              . .                         . . 2 ",
"                                                                                          O.2 . . 2 O.                  o . . l ",
"                                                                                          o . . . . o                 g . . .   ",
"                                                                                              . .                   +.. . . .   ",
"                                                                                              @ @                   . . a . 2   ",
"                                                                                                                  @ . d < . $.  ",
"                  @ . . . . . . . @ +.                                                                          1 . 9 ) . .     ",
"              . . . . . . . . 7 . . . o                 l . . . . . . . . O.                                  2 . : ] p . h     ",
"          k . . O o . . ; . . I f.Q t . . @.          . . . . . . . 6 o . . . O.                            h . + ) _ . .       ",
"          . o F { ` > . t B . o p.k.k.M . . %.          1 . . . . . * 9.r.N . . h                         l . + ( [ , . +.      ",
"        . . F { { { j . ; 7.6 . t k.k.k.J . .               @ . o % . . S k.r.; . k                     o.. + ( [ f . @         ",
"        . w { { { G w . 8 7.Y . . 9.k.k.k.b . o.              . . T y . . E k.t.O .                   k . + _ [ ) . .           ",
"      o.. A F q O . . . b 7.7.t . S k.k.k.t.. .               . . R 7.n . O d.k.K . O.              g . . ] [ [ , . g           ",
"      g . @ . . . . . . R 7.7.C . 7 k.k.k.k.m . +.            . o 7.7.5.* . Q k.e.. 2             2 . . ] [ [ s . @             ",
"      #.. . . l   @ . b 7.7.7.T . . g.k.k.k.9.. 2             . 6 7.7.7.y . M k.W . k           @ . &  .[ [ f . .               ",
"                h . 6 5.7.7.7.7.O . 8.k.k.k.d.. .             . e 7.7.7.b . . O . . %.        o . < y.} [ ^ . .                 ",
"              $.. o T 7.7.7.7.7.8 . I k.k.k.k.; .             . * R 7.H . . . . . &.      #.. . s v.| [ ( . .                   ",
"              . . D 7.7.7.7.7.7.t . I k.k.k.k.m .             @ . . o . . k . .         h . . ~ b. .[ ) + . k                   ",
"            1 . t 7.7.7.7.7.7.7.t . L k.k.k.k.M . &.            2 . . o #.  O.. $.    @ . . _ M. .[ ) + . 2                     ",
"          @.. * 4.7.7.7.7.7.7.7.t . K k.k.k.k.M . &.                          . h #.. . < X.b.| [ ( + . g                       ",
"          o . H 7.7.7.7.7.7.7.7.t . J k.k.k.k.M . &.                          . . . . Z b.b.| [ ( + . g                         ",
"          . = 7.7.7.7.7.7.7.7.7.8 . I k.k.k.k.u .                           O.. . & | m.b.| [ / . . h                           ",
"        %.. y 7.7.7.7.7.7.7.7.7.o . w.k.k.k.k.% .                         1 . . s i.m.v.| [ ^ . . h                             ",
"        +.. n 7.7.7.7.7.7.7.7.P . o h.k.k.k.p.. .                     k . . & ] m.m.i.[ [ d . . k                               ",
"        %.. y 7.7.7.7.7.7.7.7.n . r k.k.k.k.! . h                 @.. . . ^ b.m.m.y.[ ] 9 . . . l       @.. . . . . o $.        ",
"          . ; 7.7.7.7.7.7.4.v o . t g.k.k.g.; . $.              @ . . s y.m.m.M...[ _ : . . k . . k   g . . % r u % . . @.      ",
"          @ . B 7.7.7.7.P % . . . . O J I 8 . o             2 . . , | m.m.m.b. .[ ^ . . o       1 . . . . 6.k.k.k.k.6.o .       ",
"            . . y H B e . . 1 . . @ . . . . o           l . . + _ M.m.m.m.i.} [ d . . 2         o.. . . . . O u I p.k.W . o     ",
"            $.. . . . . . @.  . @     O.l $.        O.. . . Z i.m.m.m.m.y.[ ] 9 . . o.        h . . ; 6 ; o . . . o E h.- . %.  ",
"                +.2 o.%.      . o.              k . . . p X.m.m.m.m.b. .[ _ : . . &.        $.. * P 7.7.7.7.4.B % . . u K . g   ",
"                            %.. &.          2 . . . d ..m.m.m.m.m.i.[ [ ^ . . @             g . D 7.7.7.7.7.7.7.5.C O . O . .   ",
"      g                     h .       %.@ . . + Z u.m.m.m.m.m.M.X.[ ] s . . h               . . R 7.7.7.7.H n v H 4.T * . . .   ",
"    h .                     . .   @.o . . : ( v.m.m.m.m.m.m.b.| [ ) : . . @.                1 . n 7.5.C * . . . . . 8 P . . . $.",
"  g o . 1 k               +.. . . . . < ] M.m.m.m.m.m.m.m.u.[ [ f . . @                       . . ; O . . . g #.2 . . % 6 . . o.",
"g . . . . .               o . . . a | m.m.m.m.m.m.m.m.M...[ ' < . . l                         $.. . . 2 %.          g . . . . 2 ",
"    2 .               o.. . . d X.m.m.m.m.m.m.m.m.m.v.| [ ^ + . o                                                     l . . . 1 ",
"    o..           &.o . . f y.m.m.m.m.m.m.m.m.m.m.y.[ ] p . . g             $.+.$.                                      O.. . $.",
"                l . . i y.m.m.m.m.m.m.m.m.m.m.b. .[ ( & . . #.      2 . . . . . . . . . o o.                                    ",
"              2 . . ( M.m.m.m.m.m.m.m.m.m.m.y.[ [ d . . 1     &.o . . . r V J K S b t ; . . . . @.                              ",
"            o . , X.m.m.m.m.m.m.m.m.m.m.b. .[ _ , . . O.    $.. . 6 6.g.k.k.k.k.k.k.k.k.t.I r . . o %.                          ",
"          o . 9 i.m.m.m.m.m.m.m.m.m.m.i.} [ Z . . @       %.. . S h.k.k.k.k.r.E E E w.k.k.k.k.r.u . . g                         ",
"        o . i v.m.m.m.m.m.m.m.m.m.M...[ ' 9 . . k         . . ! k.k.k.k.k.6.. . . . . E k.k.k.k.k.0.; . @                       ",
"      1 . p b.m.m.m.m.m.m.m.m.m.M. .[ _ + . . . 1 $.    &.. u k.k.k.k.k.k.m . 4 5 3 . t k.k.k.k.k.k.g.u . .                     ",
"    k . : v.m.m.m.m.m.m.m.m.m.b.| [ ( + . o . . . . @   2 . 8.k.k.k.k.s.w.t . c >.c . 7 w.a.k.k.k.k.k.k.J . .                   ",
"  #.. . X.m.m.m.m.m.m.m.m.m.b.| [ ( . . h         2 . . . . S N b t 7 . . . . -.,.=.. . . . I k.k.k.k.k.k.K . o                 ",
"  . . ] m.m.m.m.m.m.m.m.m.b.} [ ^ . . k             k . . . . . . . . . X # x 1.2.2.z # X . - k.k.k.k.k.k.k.M . 1               ",
"@.. i m.m.m.m.m.m.m.m.m.b.} [ ^ . . l             l . . . % 6 e b B o . :.2.2.2.2.2.<.>.;.. o q.k.k.k.k.k.k.h.t . l             ",
"g . ( m.m.m.m.m.m.m.m.m. .[ _ . . o.            2 . o y R 7.7.7.7.7.% . :.2.2.2.2.2.<.>.;.. . . 7 ! h.k.k.k.k.p.o .             ",
"o . ..m.m.m.m.m.m.m.m.X.[ ] : . k             g . % Y 7.7.7.7.7.7.7.= . X # x 1.2.2.z # X . . . . . - 6.k.k.k.k.E . 1           ",
". . X.m.m.m.m.m.m.m.i.[ [ p . 1               . o R 7.7.7.7.7.7.7.7.B . . . . =.,.*.. . . . n R y . . . u p.k.k.k.r . @.        ",
". . X.m.m.m.m.m.m.b.[ [ Z . .               2 . n 7.7.7.7.7.7.7.7.7.7.3.U 7 . c >.c . ; U R 7.7.7.R y . . o E k.k.9.. .         ",
". . X.m.m.m.m.m.m. .[ ) . . %.              . o 5.7.7.7.7.7.7.7.7.7.7.7.7.e . $ 5 $ . 6 7.7.7.7.7.7.7.U = . . M h.k.7 . @.      ",
". . X.m.m.m.m.m.i.[ [ , . k                 . ; 7.7.7.7.7.7.7.7.7.7.7.7.7.H . . . . . B 7.7.7.7.7.7.7.7.4.y . . 0 a.6.. o       ",
". . X.m.m.m.m.M.| [ Z . o                   . t 7.7.7.7.7.7.7.7.7.7.7.7.7.7.T B B B U 7.7.7.7.7.7.7.7.7.7.7.H o . ; a.; .       ",
". . X.m.m.m.m.y.[ ] + . #.                #.. v 7.7.7.7.7.7.7.7.7.7.7.7.7.7.7.7.7.7.7.4.H B b n D P R 7.7.7.7.P o . 6 L . 1     ",
". . X.m.m.m.M.} [ s . @                     . 0 7.7.7.7.7.7.7.7.7.7.7.7.7.7.7.7.7.T e o . . . . . . . = n T 7.7.Y O . 6 o .     ",
". . X.m.m.m.y.[ _ . . &.                    . * 7.7.7.7.7.7.7.7.7.7.7.7.7.7.7.5.n o . . . 2 +.+.h o . . . . 6 U 7.Y o . . . +.  ",
". . X.m.m.b.[ [ i . 1       o 1             . . 4.7.7.7.7.7.7.7.7.7.7.7.7.7.P * . . l                   k . . . t 3.D . . . @   ",
". . X.m.m...[ _ . .         . .             2 . y 7.7.7.7.7.7.7.7.7.7.7.4.v . . 1                           @.. . o n y . . .   ",
". . X.m.v.[ [ p . g     . . . . . @           . . B 7.7.7.7.7.7.7.7.4.n O . . O.                                k . . * . . . #.",
". . ] | _ ) f . .       O.g . . g @.          #.. . 6 D U U P H b 6 . . . 1                                         @ . . . . 2 ",
". . . . . . . . @.          . .                   o . . . . . . . . . g                                               o.. . . g ",
"+.. . . . . g %.            l +.                    $.l @ @ 1 g O.                                                        k h   "
};
